<?xml version="1.0" encoding="utf-8"?>
<!-- Generator: Adobe Illustrator 26.0.0, SVG Export Plug-In . SVG Version: 6.00 Build 0)  -->
<svg version="1.1" id="Layer_1" xmlns="http://www.w3.org/2000/svg" xmlns:xlink="http://www.w3.org/1999/xlink" x="0px" y="0px"
	 viewBox="0 0 128 128" style="enable-background:new 0 0 128 128;" xml:space="preserve">
<style type="text/css">
	.st0{fill:#141414;}
</style>
<g>
	<path class="st0" d="M45.57,127.3l10.7-12.9c2.23-2.69,3.22-6.74,2.57-10.57l-3.83-22.79c1.37-0.98,2.62-2.09,3.72-3.33
		c2.54,1.49,5.94,2.54,9.15,2.58c6.88,13.35,13.26,26.03,18.23,35.9c2.47,4.91,5.49,6.17,7.38,6.52c3.71,0.69,5.5,1.03,14.27,2.64
		c1.12,0.24,2.19-0.74,2.37-2.18c0.18-1.44-0.58-2.81-1.7-3.04c0.26,0.05-11.19-1.43-13.79-2.34c-3.93-1.37-5.45-5.77-5.65-6.23
		c-4.01-9.27-7.5-17.22-14.11-33.02c1.5-0.68,2.87-1.56,4.09-2.62c3.06,3.36,0.75,0.74,20.32,22.7c5.69,7.3,10.29,6.18,27.15-0.46
		c1.1-0.36,1.77-1.8,1.49-3.22c-0.28-1.41-1.41-2.27-2.51-1.91c0,0-3.8,1.59-8.91,3.42c-9.48,3.41-10.91,1.64-13.72-1.42
		c-4.67-5.09-16.55-20.46-17.64-21.85c0.87,0.36,1.8,0.61,2.72,0.68c4.73,0.35,8.45-2.8,8.45-2.8l0.02-0.02
		c0.37-0.31,0.47-0.95,0.23-1.43c-0.22-0.43-0.64-0.58-0.99-0.38c-1.57,0.89-4.86,1.76-7.34,0.98c-1.77-0.5-3.27-1.75-4.02-2.84
		c0.25-1.07,0.39-2.32,0.39-3.36c0-1.04-0.14-2.3-0.39-3.36c0.75-1.09,2.24-2.34,4.02-2.84c2.47-0.78,5.76,0.09,7.34,0.98
		c0.35,0.2,0.78,0.05,0.99-0.38c0.25-0.48,0.14-1.12-0.23-1.43l-0.02-0.02c0,0-3.72-3.14-8.45-2.8c-0.92,0.07-1.85,0.32-2.72,0.68
		c1.09-1.39,12.96-16.76,17.64-21.85c2.81-3.06,4.24-4.83,13.72-1.42c5.11,1.84,8.91,3.42,8.91,3.42c1.11,0.36,2.23-0.5,2.51-1.91
		c0.28-1.42-0.39-2.86-1.49-3.22c-16.86-6.64-21.46-7.76-27.15-0.46C79.71,51.36,82.03,48.74,78.97,52.1
		c-1.22-1.05-2.59-1.94-4.09-2.62c6.61-15.81,10.11-23.76,14.11-33.02c0.2-0.46,1.71-4.86,5.65-6.23c2.6-0.9,14.05-2.39,13.79-2.34
		c1.13-0.24,1.89-1.6,1.7-3.04c-0.19-1.44-1.25-2.42-2.37-2.18C98.99,4.28,97.2,4.62,93.49,5.31c-1.89,0.35-4.91,1.61-7.38,6.52
		c-4.97,9.87-11.35,22.55-18.23,35.9c-3.21,0.04-6.61,1.09-9.15,2.58c-1.1-1.24-2.35-2.35-3.72-3.33l3.82-22.78
		c0.65-3.84-0.34-7.89-2.57-10.57l-10.7-12.9c-0.83-1-2.14-0.95-2.92,0.11c-0.78,1.07-0.74,2.74,0.09,3.74l10.7,12.9
		c1.18,1.42,1.7,3.57,1.36,5.61l-3.64,21.68c-2.39-1.08-5.01-1.78-7.77-1.99l-5.89-16.2c-1.15-3.17-3.43-5.51-6.1-6.25l-11.58-3.22
		c-2.38-0.66-4.88-0.02-6.88,1.76L0.89,29.59C0.31,30.1,0,30.93,0,31.76c0,0.52,0.12,1.05,0.37,1.51c0.65,1.2,1.94,1.5,2.87,0.66
		l12.04-10.72c1.06-0.94,2.39-1.28,3.65-0.93l11.58,3.22c1.42,0.39,2.63,1.63,3.24,3.31l5.11,14.05
		C27.85,44.12,19.12,53.18,19.12,64s8.73,19.89,19.74,21.15L33.75,99.2c-0.61,1.68-1.82,2.92-3.24,3.31l-11.58,3.22
		c-1.26,0.35-2.59,0.01-3.65-0.93L3.24,94.08c-0.94-0.83-2.22-0.54-2.87,0.66C0.12,95.2,0,95.73,0,96.25c0,0.84,0.31,1.66,0.89,2.17
		l12.04,10.72c1.99,1.77,4.5,2.41,6.88,1.76l11.58-3.22c2.67-0.74,4.95-3.08,6.1-6.25l5.89-16.2c2.76-0.21,5.38-0.91,7.77-1.99
		l3.64,21.68c0.34,2.05-0.18,4.19-1.36,5.61l-10.7,12.9c-0.83,1-0.87,2.67-0.09,3.74C43.43,128.25,44.74,128.3,45.57,127.3z"/>
</g>
</svg>
