<?xml version="1.0" encoding="utf-8"?>
<!-- Generator: Adobe Illustrator 26.0.0, SVG Export Plug-In . SVG Version: 6.00 Build 0)  -->
<svg version="1.1" id="Layer_1" xmlns="http://www.w3.org/2000/svg" xmlns:xlink="http://www.w3.org/1999/xlink" x="0px" y="0px"
	 viewBox="0 0 128 128" style="enable-background:new 0 0 128 128;" xml:space="preserve">
<style type="text/css">
	.st0{fill:#FFFFFF;}
</style>
<path class="st0" d="M45.17,115.37c-14.36-3.9-24.84,15.76-39.53,12.19c-4.04,0.04-8.62-6.72-3.11-8.9
	c6.57-0.55,14.34-0.28,16.4-9.6c4.12-11.61,15.72-4.09,23.29-7.89c4.67-1.62,6.34-7.23,0.29-7.94c-7.11-0.9-14.09,5.76-21.31,2.64
	c-2.9-1.1-8.92-4.3-6.23-8.75c14.19-10.93,13.16-17.07,19.75-33.14c8.33-8.86,11.81,13.37,19.2,12.22c4.62-8.36-0.55-19.83,0.3-29.3
	C50.85,1.27,95.9-15.39,108.54,18.39c13.81,34.25-8.19,50.6-2.67,56.32c7.9-6.47,14.63-20.84,20.73-2.07
	c3.04,6.04,1.46,44.92-7.72,37.87c-2.46-14.29-0.7-13.42-13.22-11.29c-3.84,1.14-6.97-4.56-9.68-2.04
	c-7.82,12.25-19.65,23.64-33.36,22.44C56.77,119.22,50.87,117.24,45.17,115.37z M91.29,51.68c4.3-2.85-1.74-12.06-4.33-4.44
	C86.29,48.4,87.18,53.76,91.29,51.68z M99.3,19.88c-9.98,1.64,1.92,26.96,4.26,10.16C103.58,26.65,102.94,21.45,99.3,19.88z
	 M77.83,35.05c5.11,3.85,6.64-7.11,6.26-10.39C81.42,9.01,72.93,29.38,77.83,35.05z"/>
</svg>
