<?xml version="1.0" encoding="utf-8"?>
<!-- Generator: Adobe Illustrator 26.0.0, SVG Export Plug-In . SVG Version: 6.00 Build 0)  -->
<svg version="1.1" id="Layer_1" xmlns="http://www.w3.org/2000/svg" xmlns:xlink="http://www.w3.org/1999/xlink" x="0px" y="0px"
	 viewBox="0 0 128 128" style="enable-background:new 0 0 128 128;" xml:space="preserve">
<style type="text/css">
	.st0{fill:#FFFFFF;}
</style>
<g id="XMLID_312_">
	<path id="XMLID_333_" class="st0" d="M45.78,127.33c0.86,0.45,1.78,0.67,2.7,0.67c1.67,0,3.32-0.72,4.45-2.07L115,52.23
		c1.46-1.73,1.78-4.15,0.83-6.2c-0.95-2.05-3.01-3.36-5.28-3.36H78.48L99.94,8.94c1.14-1.79,1.21-4.06,0.19-5.92
		C99.11,1.16,97.15,0,95.03,0H60.12c-2.08,0-4,1.11-5.04,2.9L12.42,76.6c-1.04,1.8-1.04,4.02-0.01,5.82
		c1.04,1.8,2.96,2.91,5.04,2.91H52.5l-9.63,35.32C42.15,123.29,43.36,126.07,45.78,127.33z"/>
</g>
</svg>
