<?xml version="1.0" encoding="utf-8"?>
<!-- Generator: Adobe Illustrator 26.0.0, SVG Export Plug-In . SVG Version: 6.00 Build 0)  -->
<svg version="1.1" id="Layer_1" xmlns="http://www.w3.org/2000/svg" xmlns:xlink="http://www.w3.org/1999/xlink" x="0px" y="0px"
	 viewBox="0 0 128 128" style="enable-background:new 0 0 128 128;" xml:space="preserve">
<style type="text/css">
	.st0{fill:#117200;}
</style>
<path class="st0" d="M125.07,101.24c-1.1-0.14-2.14,0.34-2.78,1.16l-4.32-0.54l6.23-6.14c1.01,0.26,2.13,0,2.92-0.79
	c1.19-1.19,1.18-3.12-0.01-4.3c-1.19-1.18-3.11-1.18-4.3,0.01c-0.78,0.79-1.04,1.89-0.79,2.89l-5.57,5.49l1.86-7.06
	c0.98-0.29,1.81-1.03,2.09-2.09c0.43-1.62-0.54-3.28-2.17-3.71c-1.62-0.43-3.29,0.54-3.71,2.17c-0.28,1.06,0.08,2.11,0.79,2.85
	l-2.02,7.67l-2.28-8.24c0.7-0.75,1.05-1.8,0.76-2.86c-0.45-1.62-2.12-2.57-3.74-2.12c-2.88,0.8-3.06,4.94,0,5.81l1.79,6.47
	c-1.36,0.59-10.74,4.65-11.7,5.07c0.65-2.88,0.51-2.24,2.88-12.62c0.01,0.06,0.15-0.92,0.15-1.41c0.17-5.66-5.08-10.89-12.16-8.46
	c-0.35,0.12,0.06-0.1-7.24,3.75c1.69-6.69,2.87-13.83,3.41-20.57c7.86,4.78,11.02-0.52,11.88-2.81c0.11-0.3,9.61-28.65,9.61-28.65
	l6.5-6.52c1,0.24,2.08,0.02,2.86-0.75c1.19-1.19,1.18-3.12-0.01-4.3c-1.19-1.18-3.11-1.18-4.3,0.01c-0.78,0.78-0.99,1.87-0.75,2.87
	l-5.65,5.67l1.9-7.21c0.98-0.29,1.81-1.03,2.09-2.09c0.43-1.62-0.54-3.28-2.17-3.71c-1.62-0.43-3.29,0.54-3.71,2.17
	c-0.28,1.06,0.08,2.11,0.8,2.85l-2.02,7.67l-2.28-8.24c0.7-0.75,1.05-1.8,0.76-2.86c-0.45-1.62-2.12-2.57-3.74-2.12
	c-1.62,0.45-2.57,2.12-2.12,3.74c0.29,1.06,1.13,1.78,2.12,2.06l2.1,7.59c0,0-5.11,10-10.18,19.91c-0.68-0.68-1.36-1.36-1.96-1.97
	c-0.83-0.83-1.59-1.59-2.27-2.27c-0.82-4.87-2.18-8.97-3.97-12.3c0.71-0.99,1.13-2.2,1.13-3.51c0-3.35-2.72-6.07-6.07-6.07
	c-0.32,0-0.63,0.05-0.94,0.09l-3.44-3.44c0.02-0.21,0.06-0.4,0.06-0.61c0-4.1-3.31-7.44-7.41-7.44c-4.09,0-7.4,3.35-7.4,7.44
	c0,0.21,0.04,0.41,0.06,0.61l-3.44,3.44c-0.31-0.05-0.62-0.09-0.94-0.09c-3.35,0-6.07,2.72-6.07,6.07c0,1.31,0.43,2.51,1.13,3.51
	c-1.79,3.33-3.15,7.43-3.97,12.3c-0.67,0.68-1.43,1.44-2.27,2.27c-0.61,0.61-1.29,1.29-1.96,1.97
	c-5.06-9.91-10.18-19.91-10.18-19.91l2.1-7.59c0.99-0.28,1.83-1,2.12-2.06c0.45-1.62-0.5-3.3-2.12-3.74
	c-1.62-0.45-3.29,0.51-3.74,2.12c-0.29,1.06,0.06,2.12,0.76,2.86l-2.28,8.24l-2.02-7.67c0.71-0.74,1.08-1.79,0.8-2.85
	c-0.43-1.62-2.09-2.59-3.71-2.17c-1.62,0.43-2.59,2.09-2.17,3.71c0.28,1.07,1.11,1.8,2.09,2.09l1.9,7.21l-5.65-5.67
	c0.24-1,0.03-2.08-0.75-2.87c-1.19-1.19-3.11-1.19-4.3-0.01c-1.19,1.18-1.19,3.11-0.01,4.3c0.78,0.78,1.86,1,2.86,0.75l6.5,6.52
	c0,0,9.49,28.35,9.61,28.65c0.86,2.29,4.02,7.6,11.88,2.81c0.54,6.74,1.72,13.88,3.41,20.57c-7.3-3.85-6.9-3.63-7.24-3.75
	c-7.08-2.43-12.33,2.8-12.16,8.46c0.01,0.49,0.14,1.47,0.15,1.41c2.37,10.38,2.22,9.75,2.88,12.62c-0.97-0.42-10.34-4.48-11.7-5.07
	l1.79-6.47c3.06-0.87,2.88-5.01,0-5.81c-1.62-0.44-3.29,0.51-3.74,2.12c-0.29,1.06,0.06,2.12,0.76,2.86l-2.28,8.24l-2.02-7.67
	c0.71-0.74,1.07-1.79,0.79-2.85c-0.43-1.62-2.09-2.6-3.71-2.17c-1.62,0.43-2.59,2.09-2.17,3.71c0.28,1.07,1.11,1.8,2.09,2.09
	l1.86,7.06l-5.57-5.49c0.25-1-0.01-2.11-0.79-2.89c-1.19-1.19-3.11-1.19-4.3-0.01c-1.19,1.18-1.19,3.11-0.01,4.3
	c0.79,0.79,1.91,1.05,2.92,0.79l6.23,6.14l-4.32,0.54c-0.64-0.82-1.67-1.3-2.78-1.16c-1.67,0.21-2.85,1.73-2.64,3.39
	c0.21,1.66,1.73,2.85,3.4,2.64c1.1-0.14,1.99-0.86,2.41-1.81l6.76-0.85c0.71,0.4,20.16,11.2,20.16,11.2
	c2.11,1.17,4.69,1.06,6.69-0.3s3.06-3.71,2.75-6.1c-0.79-6.1-1.54-11.85-1.54-11.87c0.4,0.27,11.01,7.56,16.38,11.22
	c2.11,2.29,4.37,3.66,6.72,3.66s4.6-1.37,6.72-3.66c5.38-3.67,15.98-10.96,16.38-11.22c0,0.03-0.75,5.77-1.54,11.87
	c-0.31,2.39,0.76,4.75,2.75,6.1c1.99,1.35,4.58,1.47,6.69,0.3c0,0,19.44-10.8,20.16-11.2l6.76,0.85c0.41,0.95,1.3,1.67,2.41,1.81
	c1.67,0.21,3.19-0.98,3.4-2.64C127.92,102.97,126.74,101.45,125.07,101.24z"/>
</svg>
