<?xml version="1.0" encoding="utf-8"?>
<!-- Generator: Adobe Illustrator 26.0.0, SVG Export Plug-In . SVG Version: 6.00 Build 0)  -->
<svg version="1.1" id="Layer_1" xmlns="http://www.w3.org/2000/svg" xmlns:xlink="http://www.w3.org/1999/xlink" x="0px" y="0px"
	 viewBox="0 0 1024 64" style="enable-background:new 0 0 1024 64;" xml:space="preserve">
<style type="text/css">
	.st0{fill:#6B5840;}
	.st1{opacity:0.3;}
	.st2{fill:#CBA282;}
	.st3{fill:none;stroke:#382413;stroke-miterlimit:10;}
	.st4{fill:none;stroke:#382413;stroke-width:4;stroke-miterlimit:10;}
</style>
<rect class="st0" width="1024" height="64"/>
<g id="XMLID_171_" class="st1">
	<g id="XMLID_16_">
		<g id="XMLID_1_">
			<path id="XMLID_23_" class="st2" d="M373.51-71.27c12.66,0.88,25.19,0.08,37.37-1.31c12.89-1.47,24.6-4.02,35.54-6.96
				c21.65-5.77,39.76-13.69,54.16-22.05c3.62-2.11,7.8-4.3,9.59-6.77c1.79-2.39,0.4-4.93-3.14-7c-3.46-1.99-8.32-3.54-13.37-4.93
				c-5.29-1.47-10.9-2.87-16.44-4.22c-11.66-2.83-23.72-5.49-36.93-7.16c-13.37-1.71-27.5-2.55-41.47-3.18
				c-27.98-1.27-56.39-1.31-84.33,0.12c-26.86,1.35-53.69,4.02-78.72,8c-5.57,0.88-11.14,1.79-16.52,2.83
				c-2.51,0.48-5.01,0.88-7.6,1.31c-1.55,0.24-2.83,0.4-4.26,0.8c-1.39,0.4-2.75,0.8-4.1,1.19c-9.35,2.83-17.55,6.29-23.12,10.31
				c-1.75,1.27-3.22,2.63-3.26,4.06c-0.08,1.51,1.63,2.79,4.14,3.94c4.1,1.87,9.43,3.38,14.29,4.93c10.39,3.3,20.97,6.53,32.44,9.31
				c11.22,2.71,22.01,5.61,33.71,8.08c11.66,2.43,24.08,4.78,36.85,6.25c13.13,1.51,26.74,2.35,40.39,3.02
				c13.49,0.64,27.3,0.76,40.83,0.2c6.61-0.28,12.97-0.72,19.34-1.43c0.92-0.12,0.56-0.6-0.4-0.56
				c-13.17,0.92-26.51,1.63-39.96,1.51c-13.13-0.12-26.39-0.76-38.92-2.27c-24.6-2.91-48.2-6.85-69.92-12.06
				c-5.29-1.27-10.79-2.55-15.6-4.06c-4.82-1.51-9.63-3.06-14.37-4.66c-9.67-3.26-19.1-6.61-28.5-9.99
				c-1.43-0.52-3.54-1.15-3.78-1.95c-0.28-0.99,1.59-2.11,2.87-2.95c2.63-1.75,5.73-3.38,9.31-4.9c3.58-1.51,7.52-2.87,11.7-4.1
				c1.23-0.36,2.79-0.68,3.86-1.11c0.88-0.32,1.63-0.76,2.51-1.07c2.03-0.8,4.26-1.39,6.69-1.99c20.73-5.13,45.57-7.88,69.65-9.79
				c26.58-2.11,53.89-2.87,81.03-2.27c13.45,0.28,26.86,1.07,40.04,2.15c13.17,1.07,25.83,2.63,37.61,5.17
				c11.34,2.43,21.53,5.45,31.68,8.52c7.48,2.27,18.82,5.29,15.36,9.35c-1.83,2.15-5.93,4.14-9.19,6.01
				c-3.34,1.91-6.85,3.74-10.59,5.53c-7.72,3.7-16.24,7.12-25.31,10.35c-9.03,3.22-18.31,6.37-28.46,9.07
				c-10.35,2.75-21.37,5.17-33.83,6.21c-6.21,0.52-12.58,0.68-18.9,0.48C373.31-71.47,373.23-71.27,373.51-71.27L373.51-71.27z"/>
		</g>
		<g id="XMLID_2_">
			<path id="XMLID_30_" class="st2" d="M342.19-75.41c22.33,0.99,44.73-0.8,64.91-4.46c9.99-1.79,19.42-4.02,28.38-6.49
				c8.91-2.47,17.43-5.09,24.91-8.16c7.36-2.98,15.16-6.13,20.69-9.67c5.81-3.7,8.24-8.24,0.48-11.78
				c-3.38-1.55-8.16-2.63-12.62-3.7c-4.74-1.11-9.55-2.19-14.49-3.22c-9.99-2.03-20.42-3.82-31.16-5.21
				c-10.43-1.39-21.29-2.51-32.24-3.06c-11.54-0.6-23.48-0.64-35.1-0.16c-6.17,0.24-12.14,0.92-18.27,1.19
				c-5.81,0.28-11.7,0.4-17.51,0.68c-11.5,0.56-22.92,1.31-34.07,2.51c-5.61,0.6-11.14,1.31-16.6,2.07
				c-4.74,0.64-9.19,1.55-13.93,2.19c-2.23,0.28-4.54,0.52-6.65,0.92c-2.27,0.44-4.5,0.92-6.65,1.43c-4.3,0.99-8.48,2.07-12.22,3.38
				c-7.12,2.43-13.41,5.29-18.31,8.4c-1.23,0.8-2.35,1.59-3.34,2.43c-0.56,0.48-1.23,0.96-1.63,1.43c-0.68,0.84,0.04,1.47,1.23,2.15
				c2.98,1.71,6.49,3.34,10.39,4.74c3.94,1.43,9.31,2.03,13.77,3.18c4.38,1.11,8.87,2.19,13.29,3.3c9.19,2.31,18.47,4.62,27.98,6.73
				c18.55,4.18,38.56,7.84,60.09,9.07c5.21,0.28,10.19,0.4,15.44,0.2c0.6-0.04,0.6-0.32,0-0.36c-10.47-0.48-20.85-1.03-30.92-2.23
				c-9.87-1.19-19.3-2.79-28.38-4.66c-9.35-1.91-18.39-4.02-27.22-6.25c-8.44-2.11-16.91-4.22-24.75-6.65
				c-2.23-0.68-4.02-1.39-5.81-2.23c-1.75-0.84-3.26-1.71-5.05-2.51c-3.62-1.63-7.48-3.02-10.55-4.86c0.16,0.52,0.36,1.03,0.52,1.55
				c2.55-2.31,6.09-4.54,10.07-6.53c4.02-2.03,8.87-3.66,13.53-5.45c4.82-1.83,10.55-3.22,15.68-4.9c2.67-0.88,5.65-1.47,8.76-2.07
				c3.58-0.68,7.28-1.35,11.06-1.91c15.6-2.19,32.36-3.22,48.87-3.9c4.02-0.16,8.08-0.32,12.1-0.44c4.26-0.12,8.68,0.08,12.89,0.2
				c8.64,0.24,17.27,0.08,25.87,0.48c15.56,0.76,30.76,1.87,45.61,3.86c14.73,1.99,28.77,4.7,41.99,7.84
				c4.9,1.15,11.74,2.55,12.66,4.86c0.99,2.55-3.58,5.17-7.4,7.12c-4.5,2.31-9.67,4.46-14.84,6.57c-5.25,2.15-10.51,4.3-16,6.37
				c-22.21,8.4-51.74,14.65-83.42,15.68c-3.98,0.12-8,0.16-12.02,0.12C341.99-75.53,341.99-75.41,342.19-75.41L342.19-75.41z"/>
		</g>
		<g id="XMLID_3_">
			<path id="XMLID_37_" class="st2" d="M337.69-80.18c8,0.16,16.04,0.12,24-0.28c8.04-0.4,15.96-1.07,23.84-1.79
				s15.92-1.79,22.96-3.3c7.32-1.55,14.25-3.34,20.81-5.33c12.74-3.86,23.84-8.56,32.36-13.81c2.79-1.75,4.97-3.66,3.9-5.73
				c-0.88-1.71-4.1-2.98-7.76-3.98c-3.42-0.92-7.36-1.55-11.14-2.19c-4.3-0.72-8.64-1.39-13.05-2.03
				c-17.27-2.39-35.18-3.5-53.49-3.94c-9.07-0.2-18.03-0.08-27.02,0.32c-9.07,0.4-18.03,1.07-27.06,1.67
				c-8.91,0.6-17.75,1.39-26.43,2.39c-8.48,0.96-16.99,1.95-25.19,3.22c-1.79,0.28-3.54,0.52-5.41,0.68
				c-2.23,0.2-4.3,0.56-6.41,0.92c-1.83,0.32-3.62,0.68-5.41,1.03c-2.07,0.4-4.14,0.72-5.93,1.31c-6.92,2.19-12.93,5.37-12.81,8.95
				c0.12,3.38,5.97,6.21,12.66,8.24c3.78,1.15,8.8,1.67,12.85,2.67c4.02,0.99,8.08,1.99,12.18,2.95c15.88,3.74,33.51,7.04,52.33,7.8
				c4.78,0.2,9.59,0.2,14.41,0.08c0.8-0.04,0.8-0.48,0-0.48c-18.51,0.52-37.41-1.75-53.05-5.45c-7.72-1.83-14.92-3.9-21.85-6.13
				c-3.46-1.11-6.21-2.35-9.11-3.66c-2.31-1.03-5.41-1.75-7.68-2.83c-2.27-1.03-3.54-2.11-2.87-3.46c0.76-1.51,3.14-2.79,5.45-4.02
				c0.96-0.52,2.07-0.99,3.22-1.43c1.39-0.56,2.67-1.11,3.98-1.67c2.59-1.11,5.85-1.87,8.99-2.71c1.59-0.44,2.95-0.92,4.74-1.27
				c1.71-0.32,3.46-0.6,5.21-0.92c3.94-0.64,7.96-1.23,12.06-1.79c8.04-1.07,16.44-1.83,24.75-2.51c8.4-0.68,16.72-1.11,25.27-1.23
				c8.52-0.12,16.99,0.04,25.51,0.2c16.79,0.32,32.95,1.39,49.15,3.1c7.8,0.84,15.52,1.83,22.92,3.1c3.78,0.64,7.64,1.27,11.18,2.11
				c2.27,0.52,4.58,1.11,4.38,2.11c-0.28,1.35-3.18,2.71-5.09,3.82c-1.95,1.11-4.02,2.23-6.25,3.3c-4.62,2.23-9.75,4.3-15.28,6.21
				c-5.45,1.87-11.3,3.58-17.47,5.13c-3.18,0.8-6.45,1.51-9.79,2.23c-3.22,0.68-6.25,1.47-9.51,2.11
				c-6.65,1.35-13.29,2.67-20.5,3.54c-7.16,0.88-14.57,1.55-22.01,2.03c-3.78,0.24-7.64,0.4-11.46,0.52
				C337.45-80.3,337.45-80.18,337.69-80.18L337.69-80.18z"/>
		</g>
		<g id="XMLID_4_">
			<path id="XMLID_45_" class="st2" d="M326.55-86.07c13.93-0.2,27.78-1.07,41.19-2.47c6.69-0.68,13.33-1.47,19.82-2.39
				c6.89-0.96,13.17-2.31,19.3-3.82c11.66-2.91,23.24-6.37,32.32-10.39c2.79-1.23,4.66-2.67,3.7-4.34
				c-0.76-1.31-3.42-2.35-6.37-3.06c-5.85-1.43-13.13-1.79-19.86-2.15c-7.08-0.36-14.21-0.6-21.33-0.68
				c-7.24-0.08-14.41-0.44-21.65-0.52c-14.13-0.12-28.26,0.36-42.11,1.39c-14.01,1.03-27.98,2.63-41.23,4.66
				c-6.65,0.99-13.17,2.15-19.46,3.46c-1.43,0.28-2.79,0.64-4.26,0.92c-1.51,0.28-3.22,0.36-4.78,0.6c-3.82,0.6-6.73,1.55-7.72,3.14
				c-1.87,2.98,4.78,5.41,11.14,6.65c3.54,0.68,7.32,1.19,10.9,1.87c3.66,0.72,7.4,1.35,11.14,1.99c7.2,1.23,14.61,2.31,22.05,3.3
				c7.32,0.99,15.08,1.79,22.88,1.79c3.66,0,7.12-0.2,10.59-0.64c0.4-0.04,0.24-0.28-0.16-0.24c-15.2,1.19-30.05-1.19-43.34-3.78
				c-6.65-1.27-13.17-2.67-19.5-4.18c-5.25-1.23-10.75-2.83-14.21-4.78c-1.39-0.8-1.23-1.23-0.12-2.11
				c1.23-0.96,2.95-1.79,5.33-2.35c5.57-1.35,11.3-2.59,17.23-3.74c11.9-2.27,24.28-3.94,37.25-5.05
				c12.93-1.11,26.15-1.71,39.44-1.79c6.49-0.04,13.01,0.04,19.46,0.24c6.81,0.2,13.13,0.76,19.66,1.51
				c6.17,0.72,12.18,1.59,18.11,2.55c2.87,0.44,5.77,0.68,8.16,1.19c0.52,0.12,1.07,0.24,1.55,0.36c-0.52-0.16,1.07,0.36,0.64,0.24
				c0.2,0.08,0.4,0.16,0.16,0.28c-1.47,0.88-3.62,1.63-5.57,2.35c-2.27,0.84-4.58,1.67-6.96,2.51c-4.62,1.55-9.43,3.02-14.49,4.34
				c-5.33,1.43-11.02,2.63-16.48,3.94c-5.45,1.35-10.9,2.67-16.68,3.78c-11.58,2.19-23.76,3.78-36.42,4.78
				C332.79-86.47,329.69-86.27,326.55-86.07C326.43-86.15,326.43-86.07,326.55-86.07L326.55-86.07z"/>
		</g>
		<g id="XMLID_5_">
			<path id="XMLID_51_" class="st2" d="M320.5-94.95c8.99,0.84,18.31,0.56,27.3-0.2c8.32-0.72,16.48-1.63,24.44-2.83
				c1.59-0.24,3.26-0.64,4.93-0.76c0.99-0.08,2.19-0.04,3.22-0.2c1.19-0.2,2.27-0.56,3.26-0.88c3.18-0.99,6.01-2.19,8.28-3.54
				c2.47-1.43,4.46-3.22,2.59-4.93c-1.99-1.75-7.72-2.47-12.3-2.79c-4.5-0.32-9.03,0-13.57-0.16c-4.34-0.16-8.91-0.36-13.25-0.04
				c-4.58,0.32-9.15,0.56-13.73,0.92c-4.54,0.32-8.99,0.76-13.49,1.15c-4.58,0.4-9.19,0.99-13.85,1.23
				c-3.98,0.2-7.92,0.48-11.86,0.68c-4.06,0.2-8.4,0.68-11.86,1.55c-3.46,0.88-7.88,2.31-9.07,3.9c-1.63,2.19,4.58,3.82,8.87,4.82
				c4.14,0.96,8.76,1.51,13.53,1.83c9.27,0.64,18.47,0.92,27.82,0.36c0.44-0.04,0.36-0.32-0.12-0.32
				c-7.56,0.12-14.76-0.36-21.73-1.47c-3.1-0.52-6.01-1.31-8.64-2.11c-2.87-0.84-5.89-1.63-8.68-2.55
				c-1.15-0.36-1.67-0.88-1.31,0.04c0.32,0.84,0.28,0.52,1.11,0.16c0.96-0.44,2.07-0.8,3.22-1.15c2.79-0.8,5.69-1.47,8.48-2.27
				c6.01-1.63,13.37-2.55,20.46-3.26c7.76-0.8,15.52-1.35,23.52-1.63c4.02-0.12,7.92,0.08,11.94,0.08c3.78,0,7.64,0,11.3,0.44
				c1.83,0.2,3.3,0.6,4.97,0.96c1.75,0.36,3.66,0.68,5.49,0.99c0.76,0.12,1.55,0.24,2.31,0.36c0.16,0.04,1.15,0.2,1.15,0.2
				c-0.08,0.04-0.52-0.44-0.32-0.16c-0.24-0.36-0.2-0.2-0.4,0c-0.24,0.24-0.48,0.44-0.84,0.68c-1.59,1.03-3.58,1.95-5.93,2.79
				c-1.27,0.44-3.02,0.84-3.9,1.39c-0.36,0.24-0.72,0.72-0.88,0.84c-0.16,0.08-1.19,0.4-1.71,0.56c-6.13,1.91-14.05,3.26-21.61,4.18
				c-9.39,1.11-19.3,1.75-29.09,1.07C320.38-95.11,320.26-94.95,320.5-94.95L320.5-94.95z"/>
		</g>
		<g id="XMLID_6_">
			<path id="XMLID_59_" class="st2" d="M321.21-100c3.42,0.56,6.96,0.92,10.59,1.23c3.78,0.32,7.64,0.64,11.5,0.64
				c4.3-0.04,8.56-0.76,12.3-1.51c4.06-0.84,8.87-2.31,6.37-4.26c-1.15-0.92-3.22-1.35-5.89-1.39c-1.75-0.04-3.38,0.2-5.17,0.2
				c-3.98,0-7.96-0.08-11.94,0c-3.9,0.08-7.84,0.32-11.54,0.8c-3.82,0.48-7.28,1.23-11.02,1.75c-1.15,0.16-1.55,0.56-1.07,0.99
				c1.23,1.03,4.18,1.83,6.89,2.31c2.35,0.4,5.65,0.88,8.2,0.6c0.4-0.04,0.64-0.28,0.28-0.4c-1.91-0.64-4.58-0.88-6.61-1.47
				c-2.15-0.64-4.02-1.39-6.29-1.95c0.12,0.36,0.24,0.72,0.36,1.07c4.66-1.47,12.3-2.03,18.19-2.27c3.06-0.12,6.05-0.12,9.11,0.04
				c2.95,0.16,5.45,0.48,7.36,1.35c-0.4-0.28-0.8-0.52-1.19-0.8c0.12,0.08,0.2,0.2,0.28,0.32c0.04-0.24,0.04-0.24-0.04,0.08
				c0.24-0.36,0.48-0.68,0.72-1.03c-0.64,0.48-4.58,1.11-6.29,1.39c-2.59,0.44-5.05,0.84-7.52,1.35
				c-5.53,1.07-11.22,1.27-17.31,0.92C321.13-100.16,320.89-100.04,321.21-100L321.21-100z"/>
		</g>
		<g id="XMLID_7_">
			<path id="XMLID_65_" class="st2" d="M352.65-65.86c22.88-0.2,45.93-0.56,68.41-2.31c11.26-0.88,22.41-2.11,32.95-3.9
				c10.31-1.71,19.78-4.14,28.42-6.89c17.23-5.49,29.49-12.62,40.63-19.9c2.47-1.63,5.01-3.22,7.84-4.78
				c2.67-1.47,5.81-2.79,9.07-4.1c8.04-3.26,19.74-3.62,30.72-4.18c29.81-1.51,59.9-1.95,89.7-3.5c0.44-0.04,0.36-0.32-0.12-0.32
				c-26.86,0.2-53.69,1.15-80.55,1.71c-12.34,0.28-25.27-0.28-36.89,1.63c-4.62,0.76-9.27,1.79-12.85,3.14
				c-3.58,1.35-6.73,2.91-9.59,4.46c-5.81,3.22-10.39,6.73-15.92,9.99c-5.97,3.5-12.54,6.89-20.1,9.95
				c-7.56,3.06-15.8,5.89-25.15,8.12c-9.43,2.27-19.42,4.14-30.01,5.53c-24.63,3.22-50.74,4.26-76.57,5.13
				C352.33-66.02,352.33-65.86,352.65-65.86L352.65-65.86z"/>
		</g>
		<g id="XMLID_9_">
			<path id="XMLID_72_" class="st2" d="M644.93-106.89c-20.85-1.35-43.3-1.99-64.03-0.16c-9.95,0.88-19.5,2.39-27.94,4.58
				c-4.34,1.15-8.6,2.35-12.42,3.74c-4.18,1.55-7.68,3.26-11.18,5.01c-7.12,3.54-13.65,7.24-21.65,10.55
				c-7.28,2.98-15.32,5.77-23.88,8.24c-17.07,4.93-36.93,8.76-57.31,11.26c-45.49,5.61-95.63,3.78-139.41-3.02
				c-23.2-3.62-44.22-8.56-64.79-13.93c-10.31-2.71-20.66-5.41-31.92-7.52c-11.58-2.15-23.6-3.46-36.34-4.14
				c-26.55-1.39-53.73-0.99-80.43-0.68c-27.78,0.32-55.52,1.11-83.18,1.99c-6.49,0.2-12.93,0.44-19.38,0.8
				c-0.52,0.04-0.36,0.32,0.12,0.32c13.97-0.12,27.94-0.64,41.87-0.96c13.73-0.32,27.5-0.6,41.27-0.8
				c27.26-0.36,54.64-0.32,81.78,0.84c12.93,0.56,25.63,1.63,37.93,3.26c11.86,1.59,22.8,4.1,33.43,6.61
				c10.43,2.47,20.69,5.05,31.44,7.28c10.71,2.23,21.77,4.26,33.07,6.01c22.49,3.54,46.32,6.25,70.44,7.6
				c22.57,1.23,45.41,1.59,67.93,0.12c21.17-1.39,42.62-3.82,61.21-7.96c18.67-4.18,34.82-9.59,46.96-16.4
				c6.73-3.78,12.14-7.88,19.9-11.38c7.36-3.3,16.16-5.77,26.86-7.28c9.91-1.39,20.06-2.03,30.45-2.67
				c10.9-0.68,22.05-0.92,33.07-1.03c5.37-0.04,10.71-0.12,16.08-0.2C645.05-106.77,645.13-106.89,644.93-106.89L644.93-106.89z"/>
		</g>
		<g id="XMLID_11_">
			<path id="XMLID_79_" class="st2" d="M355.44-66.25c-28.22,0.96-56.47-1.91-81.7-6.57c-12.85-2.39-24.95-5.25-36.49-8.44
				c-5.69-1.59-11.26-3.26-16.75-4.93c-5.57-1.71-10.82-3.58-16.28-5.33c-10.79-3.5-21.29-7.16-32.32-10.55
				c-5.69-1.75-11.7-3.38-18.86-4.14c-6.89-0.72-14.21-0.68-21.29-0.68c-15.64,0.04-31.2,0.4-46.8,0.84
				c-15.44,0.44-30.88,0.88-46.28,1.43c-30.6,1.03-61.09,2.51-91.46,4.34c-3.86,0.24-7.68,0.48-11.5,0.72
				c-0.32,0-0.24,0.24,0.08,0.2c30.6-1.47,61.33-2.51,92.09-3.18c15.4-0.32,30.84-0.64,46.28-0.64c15.44,0,30.88,0.24,46.32,0.24
				c7.44,0,14.96-0.08,22.37,0.16c6.57,0.2,12.46,1.03,17.91,2.43c5.73,1.47,10.98,3.22,16.36,4.86c5.53,1.67,11.18,3.3,16.79,4.93
				c11.3,3.3,22.92,6.49,34.82,9.51c11.74,2.98,23.96,5.77,36.61,8.12c24.63,4.62,51.86,7.64,79.56,7.16c3.5-0.08,7-0.2,10.51-0.36
				C355.64-66.18,355.64-66.25,355.44-66.25L355.44-66.25z"/>
		</g>
		<g id="XMLID_18_">
			<path id="XMLID_85_" class="st2" d="M636.85-101.83c-20.77-1.43-42.7,0.36-61.81,3.54c-4.93,0.84-9.99,1.59-14.49,2.71
				c-4.5,1.11-8.76,2.35-12.81,3.66c-8.48,2.79-15.08,6.25-21.53,9.71c-6.41,3.46-13.09,6.89-21.17,9.83
				c-8.64,3.14-18.98,5.13-29.77,7c-23.84,4.18-49.87,6.96-75.81,8.52c-25.63,1.55-51.82,2.07-77.61,0.88
				c-24.2-1.11-48.59-4.22-69.73-8.76c-20.73-4.46-38.09-10.79-58.7-15.28c-20.89-4.58-44.69-6.01-68.49-6.37
				c-24.6-0.36-49.39,0.28-73.98,0.52c-27.5,0.28-55.44,0.48-82.74,1.95c-6.65,0.36-13.33,0.76-19.98,1.11
				c-1.51,0.08-1.07,0.96,0.36,0.96c13.89,0.16,27.7,0.36,41.59,0.2c13.65-0.16,27.3-0.2,40.95-0.36
				c25.39-0.28,50.86-0.6,76.25-0.68c23.72-0.08,48.16,0.28,70.4,3.74c21.77,3.38,39.44,9.43,59.3,14.01
				c20.58,4.78,43.78,7.76,67.54,9.23c24.6,1.55,49.59,1.83,74.38,0.88c26.07-0.99,51.98-3.1,77.25-5.69
				c12.14-1.23,24.08-2.11,35.46-4.26c10.23-1.95,18.86-4.82,26.27-8.12c14.29-6.37,25.31-13.81,42.5-19.22
				c8.6-2.71,17.71-5.13,28.18-6.69c10.19-1.51,21.05-2.47,32-2.79c5.33-0.16,10.75-0.2,16.08-0.16
				C637.09-101.64,637.21-101.83,636.85-101.83L636.85-101.83z"/>
		</g>
		<g id="XMLID_25_">
			<path id="XMLID_91_" class="st2" d="M642.1-122.45c-27.38,0.68-54.76,1.43-82.18,2.07c-12.97,0.32-26.19,0.72-38.84-0.68
				c-9.91-1.11-19.18-3.14-27.22-5.57c-16.75-5.09-32.59-10.63-53.21-13.37c-5.97-0.8-12.06-1.39-18.35-1.63
				c-6.05-0.24-12.18-0.16-18.23-0.24c-12.81-0.2-25.63,0-38.44,0.12c-26.9,0.28-53.69,0.16-80.55,1.07
				c-23.92,0.84-47.44,2.67-70.16,5.65c-22.45,2.95-42.15,7.52-59.54,13.65c-8.36,2.95-16.79,5.93-27.86,7.28
				c-5.97,0.72-12.26,1.39-18.55,1.59c-6.13,0.2-12.34,0.28-18.51,0.24c-27.34-0.16-54.64-0.32-81.98,0.04
				c-27.58,0.36-55.08,1.15-82.5,2.39c-6.37,0.28-12.62,0.64-18.94,1.11c-0.84,0.08-0.68,0.6,0.2,0.56
				c13.73-0.28,27.38-1.03,41.11-1.47c13.49-0.44,27.02-0.8,40.51-1.03c27.22-0.52,54.76-0.76,81.98-0.24
				c13.13,0.28,26.27,0.96,39.4,1.11c6.13,0.08,12.1,0.2,18.07-0.36c5.85-0.56,11.46-1.55,16.48-2.83
				c9.55-2.39,17.47-5.61,26.15-8.4c8.91-2.91,18.63-5.29,28.77-7.52c20.54-4.46,42.5-7.32,65.67-9.07
				c26.66-1.99,53.77-2.43,80.91-2.47c13.33,0,26.62,0.28,39.92,0.56c6.17,0.12,12.34,0.28,18.47,0.56
				c6.21,0.28,12.14,0.92,18.15,1.55c6.09,0.64,12.18,1.15,18.07,2.03c4.97,0.76,9.71,1.71,14.25,2.79
				c8.99,2.07,17.03,4.66,25.83,6.89c8.4,2.11,17.19,4.18,26.51,5.69c10.71,1.71,21.97,2.23,33.55,2.03
				c13.29-0.24,26.55-0.99,39.76-1.51c13.69-0.56,27.38-1.07,41.07-1.63c6.73-0.28,13.45-0.52,20.18-0.8
				C642.26-122.33,642.26-122.45,642.1-122.45L642.1-122.45z"/>
		</g>
		<g id="XMLID_32_">
			<path id="XMLID_97_" class="st2" d="M647.24-129.29c-47.12,1.55-99.18,2.71-140.92-7.24c-10.67-2.55-20.85-5.33-32.36-7.32
				c-10.94-1.87-22.76-2.95-34.66-3.5c-24.79-1.19-49.59-0.99-74.54-0.84c-27.98,0.16-55.96,0.76-83.85,1.71
				c-26.07,0.92-52.69,1.67-78.24,3.9c-12.1,1.03-24.12,2.47-35.34,4.46c-11.54,2.07-22.21,4.78-32.95,7.32
				c-10.51,2.51-21.53,4.74-33.27,6.25c-11.54,1.51-23.52,2.43-35.62,2.98c-12.3,0.56-24.6,0.6-36.93,0.8
				c-12.97,0.2-25.83,0.28-38.8,0.24c-27.5-0.16-55.04-0.96-82.5,0.12c-6.45,0.24-12.78,0.64-19.06,1.19
				c-0.56,0.04-0.44,0.4,0.12,0.4c27.5-1.27,54.64-1.15,82.22-0.44c26.03,0.68,51.7,2.43,77.84,1.95
				c24.4-0.44,48.51-2.31,70.92-6.01c23.32-3.9,41.31-11.14,64.79-15c11.78-1.95,24.48-3.06,37.05-3.94
				c13.33-0.96,26.86-1.67,40.36-2.27c27.82-1.19,55.76-1.99,83.73-2.39c25.87-0.36,52.17-0.56,77.8,0.99
				c24.36,1.51,47.24,5.21,67.74,10.31c10.43,2.59,20.81,5.05,32.51,6.81c10.94,1.63,22.8,2.67,34.5,2.95
				c5.97,0.16,11.94,0.28,17.91,0.28c6.17,0,12.06-0.2,18.19-0.44c11.94-0.44,23.76-1.03,35.58-1.79c5.97-0.4,11.9-0.8,17.83-1.19
				C647.63-129.1,647.55-129.29,647.24-129.29L647.24-129.29z"/>
		</g>
		<g id="XMLID_39_">
			<path id="XMLID_103_" class="st2" d="M307.12-153.81c14.01,0.44,28.02,0.68,42.03,0.99c13.85,0.28,27.7,0.68,41.55,1.03
				c25.31,0.64,51.02,1.15,75.58,3.74c12.34,1.31,23.92,3.26,35.26,5.49c11.66,2.27,23.28,4.58,35.74,6.21
				c24.28,3.1,50.5,4.02,76.01,3.46c15.28-0.32,30.72-0.99,45.53-2.47c14.76-1.47,29.29-3.26,43.78-5.05
				c0.84-0.12,0.48-0.56-0.36-0.52c-13.37,0.84-26.78,1.55-40.28,2.15c-13.33,0.6-26.66,1.31-40.08,1.75
				c-25.31,0.76-51.1,0.32-75.58-2.39c-24.95-2.79-46.32-8.68-71.04-11.62c-24.48-2.91-50.74-3.62-76.25-3.5
				c-15,0.08-29.97,0.28-44.93,0.36c-15.68,0.04-31.36,0.08-47,0.28C306.92-153.93,306.92-153.81,307.12-153.81L307.12-153.81z"/>
		</g>
		<g id="XMLID_40_">
			<path id="XMLID_21_" class="st2" d="M679.63-145.69c-3.86,0.2-7.76,0.32-11.62,0.6c-3.94,0.28-7.88,0.56-11.82,0.84
				c-8.16,0.56-16.4,1.03-24.63,1.39c-16,0.72-32.04,0.96-48.12,0.44c-13.77-0.44-27.38-1.51-40.47-3.14
				c-12.78-1.59-25.07-3.5-36.45-6.25c-5.53-1.31-10.75-2.83-15.6-4.5c-4.54-1.55-9.67-3.3-11.98-5.49
				c-2.11-1.99-1.11-4.06,1.71-5.93c3.18-2.11,8.16-3.54,13.77-4.66c6.21-1.19,13.09-1.87,19.82-2.55
				c7.52-0.76,15.08-1.39,22.68-1.99c15.32-1.15,30.8-1.99,46.4-2.47c31.32-0.96,62.84-0.76,94.2-0.12
				c3.82,0.08,7.68,0.16,11.5,0.28c0.88,0.04,1.03-0.48,0.2-0.56c-15.96-1.63-32.08-2.91-48.59-3.46
				c-16.32-0.52-32.79-0.72-49.15-0.32c-16.68,0.36-33.31,1.11-49.79,2.23c-8.08,0.56-16.08,1.19-24.04,1.91
				c-7.44,0.68-14.96,1.35-22.09,2.43c-14.01,2.11-26.62,6.01-28.42,12.02c-1.67,5.69,10.9,10.19,21.73,13.37
				c11.5,3.42,24.32,6.05,38.01,8c13.37,1.91,27.58,2.83,41.79,3.22c33.27,0.88,66.7-0.99,99.14-3.74c4.06-0.36,7.96-0.88,11.9-1.35
				C679.99-145.53,679.95-145.73,679.63-145.69L679.63-145.69z"/>
		</g>
		<g id="XMLID_53_">
			<path id="XMLID_20_" class="st2" d="M668.53-149.43c-13.29,0.16-26.55,0.64-39.8,0.99c-6.77,0.2-13.53,0.32-20.34,0.32
				c-3.26,0-6.49-0.04-9.75-0.08c-3.06-0.04-5.93-0.36-8.95-0.48c-20.58-0.88-42.74-2.63-59.06-7.8c-3.94-1.23-7.2-2.55-9.55-4.3
				c-1.83-1.35-2.75-2.83-1.39-4.1c-0.32,0.28,0.52-0.36,0.48-0.32c0.88-0.56-0.2,0.04,0.44-0.24c0.68-0.32,1.31-0.52,2.23-0.72
				c2.03-0.48,4.3-0.68,6.69-0.88c5.93-0.44,12.06-0.68,18.07-0.92c13.37-0.6,26.66-1.31,40.04-1.83
				c13.37-0.52,26.74-0.84,40.16-0.96c30.05-0.24,60.02,0.36,89.98,1.19c0.56,0,0.72-0.36,0.12-0.4
				c-27.7-1.75-55.84-2.51-83.89-2.79c-14.29-0.12-28.57-0.16-42.86-0.08c-13.93,0.08-27.98,0.16-41.83,0.72
				c-7,0.28-14.05,0.6-20.97,1.03c-5.49,0.36-11.3,1.03-15.16,2.67c-8.36,3.46-4.62,8.48,2.15,11.86
				c6.89,3.42,17.23,5.97,27.58,7.72c10.71,1.79,22.57,2.98,34.31,3.22c3.42,0.08,6.81,0.12,10.23,0.08c1.43,0,2.95,0,4.38-0.04
				c1.99-0.08,3.86-0.32,5.89-0.36c7.72-0.2,15.32-0.64,23-0.99c15.92-0.72,31.76-1.71,47.76-2.23
				C668.85-149.23,668.85-149.43,668.53-149.43L668.53-149.43z"/>
		</g>
		<g id="XMLID_55_">
			<path id="XMLID_19_" class="st2" d="M664.07-156.52c-13.97-0.16-27.98,0.56-41.91,0.16c-5.85-0.16-11.94-0.52-17.59-1.07
				c-5.45-0.56-11.1-1.11-16.32-1.95c-2.39-0.4-4.66-0.88-6.85-1.39c-0.28-0.08-2.63-0.84-2.83-0.8c1.43-0.16,0.32,1.27,0.24,1.19
				c-0.36,0.08-0.28,0.04,0.32-0.08c0.36-0.08,0.72-0.16,1.07-0.24c0.4-0.08,2.67-0.28,3.7-0.4c1.67-0.16,3.3-0.36,4.97-0.52
				c3.58-0.36,7.2-0.68,10.83-0.99c13.49-1.19,27.26-2.07,41.07-2.47c15.6-0.44,31.4-0.48,46.96,0.04c0.99,0.04,1.23-0.6,0.24-0.68
				c-14.96-1.31-30.13-2.07-45.49-2.19c-15.6-0.12-31.12,0.4-46.44,1.47c-3.82,0.28-7.56,0.6-11.26,0.99
				c-3.5,0.36-7.32,0.64-10.55,1.31c-3.14,0.64-5.85,1.83-5.69,3.22c0.16,1.67,3.58,2.59,6.89,3.42c5.45,1.39,11.74,2.39,18.19,2.83
				c6.61,0.48,13.45,0.36,20.1,0.04c7.52-0.36,15.12-0.64,22.68-0.88c9.23-0.32,18.55-0.44,27.74-0.92
				C664.35-156.36,664.35-156.52,664.07-156.52L664.07-156.52z"/>
		</g>
		<g id="XMLID_67_">
			<path id="XMLID_24_" class="st2" d="M332.91-152.82c-26.62-0.92-53.33-1.75-80.07-1.75c-26.23,0-52.37,0.99-77.37,4.14
				c-11.94,1.51-23.48,3.46-34.66,5.65c-10.75,2.11-21.05,4.58-31.48,6.89c-20.73,4.66-42.78,9.23-66.9,10.71
				c-15.92,0.99-32.2,1.03-48.2,1.63c-16.32,0.64-32.63,1.23-48.87,1.99c-0.88,0.04-0.92,0.52,0,0.52
				c14.8,0.04,29.57-0.04,44.37-0.12c14.37-0.08,28.85-0.16,43.14-0.72c12.81-0.52,25.35-1.55,37.45-3.22
				c11.34-1.59,22.21-3.58,32.75-5.81c10.59-2.23,21.01-4.58,31.64-6.77c10.59-2.19,21.13-4.42,32.36-6.09
				c12.22-1.83,24.91-3.18,37.81-4.18c12.89-0.99,25.83-1.83,38.92-2.27c29.65-1.03,59.38-0.76,89.11-0.36
				C333.27-152.58,333.27-152.82,332.91-152.82L332.91-152.82z"/>
		</g>
		<g id="XMLID_74_">
			<path id="XMLID_27_" class="st2" d="M649.35-187.68c-24.24-0.96-48.95-1.23-73.31-1.07c-23.96,0.16-48.31,0.64-71.64,2.95
				c-11.62,1.15-22.96,2.67-33.91,4.54c-11.46,1.95-21.97,4.46-32.44,7.12c-10.83,2.75-21.81,5.37-34.43,6.73
				c-13.01,1.39-26.55,1.91-40,2.39c-14.13,0.48-28.26,0.92-42.42,1.19c-14.45,0.28-28.81,0.32-43.26,0.32
				c-27.26,0.04-54.6,0.04-81.82,0.88c-25.43,0.76-51.26,2.47-75.34,5.73c-24.95,3.38-46.72,8.72-69.29,13.85
				c-11.02,2.51-22.33,4.9-34.39,6.61c-12.02,1.75-24.56,2.98-37.17,3.9c-25.31,1.79-51.58,2.39-77.25,2.87
				c-6.41,0.12-12.81,0.24-19.22,0.32c-1.63,0.04-1.59,0.92,0,0.96c25.75,0.76,51.82,1.67,77.61,0.72
				c25.63-0.96,50.66-3.1,73.94-7.36c23.68-4.34,44.69-10.51,68.37-14.88c23.04-4.26,48.23-6.96,73.43-8.64
				c54.6-3.62,110.4-2.98,165.56-2.83c26.31,0.08,54.88-0.52,79.24-4.62c12.14-2.03,22.57-5.13,33.79-7.76
				c10.23-2.39,21.13-4.42,32.4-6.01c11.02-1.55,22.45-2.79,33.95-3.74c11.9-0.99,24-1.99,36.14-2.47
				c24.36-0.96,48.91-1.11,73.35-1.03c6.01,0,12.02,0,18.03-0.04C650.3-187.16,650.26-187.64,649.35-187.68L649.35-187.68z"/>
		</g>
		<g id="XMLID_8_">
			<path id="XMLID_138_" class="st2" d="M655.39-191.62c-26.19-1.39-52.37-2.63-78.8-3.02c-26.19-0.4-53.13-0.28-78.96,1.43
				c-13.09,0.88-26.11,2.11-38.76,3.62c-12.66,1.51-24.79,3.58-36.97,5.53c-12.26,1.99-24.6,3.94-37.37,5.37
				c-11.74,1.31-23.8,2.27-35.94,2.98c-49.67,2.87-100.13,1.75-150.16,2.87c-24.63,0.56-49.27,1.75-72.99,4.34
				c-24.87,2.71-47.36,7.24-69.69,12.1c-11.26,2.47-22.49,4.93-34.19,7.08c-11.9,2.19-24.32,3.98-36.93,5.45
				c-25.11,2.98-51.3,4.38-77.61,4.3c-6.45-0.04-12.85-0.12-19.26-0.32c-0.44,0-0.56,0.28-0.12,0.32
				c51.02,3.1,103.47-0.2,149.52-8.95c23.36-4.46,45.29-10.07,69.69-13.77c22.92-3.46,47.32-5.33,71.87-6.29
				c49.95-1.95,100.29-0.64,150.28-2.39c24.79-0.88,49.51-2.71,72.91-5.97c25.15-3.54,48.75-8.64,74.7-11.34
				c25.55-2.67,52.33-3.9,78.8-4.18c26.74-0.28,53.49,0.4,80.19,0.8c6.61,0.12,13.17,0.24,19.74,0.36
				C655.75-191.34,655.83-191.62,655.39-191.62L655.39-191.62z"/>
		</g>
		<g id="XMLID_10_">
			<path id="XMLID_149_" class="st2" d="M-92.76-149.07c12.66,0.44,25.35,0.84,38.09,0.88c12.7,0.04,25.19,0.08,37.69-0.99
				c12.26-1.03,23.36-3.06,33.59-5.81c10.35-2.75,19.7-5.97,29.93-8.8c10.35-2.83,21.45-4.97,33.75-6.37
				c12.42-1.39,25.23-2.07,38.01-2.71c28.73-1.43,57.35-3.18,86.28-4.14c29.29-0.96,58.54-1.39,87.91-1.23
				c13.97,0.08,27.9,0.48,41.87,0.44c13.61-0.04,27.18-1.11,40.04-2.75c24.95-3.18,47.2-8.87,71.08-13.01
				c23.56-4.06,48.27-6.89,73.47-9.03c51.46-4.38,104.23-5.45,156.8-4.26c6.49,0.16,12.93,0.32,19.42,0.52
				c0.72,0.04,0.92-0.44,0.16-0.48c-51.46-2.67-104.31-3.74-155.93-1.11c-25.83,1.31-51.22,3.74-75.66,7.16
				c-24.79,3.5-47.44,8.44-71.08,12.85c-11.62,2.19-23.64,4.22-36.18,5.53c-13.69,1.43-28.14,2.23-42.31,2.51
				c-14.45,0.28-28.85,0.08-43.3,0.16c-14.57,0.08-29.17,0.28-43.74,0.56c-29.37,0.48-58.7,1.23-88.07,1.75
				c-26.15,0.48-52.89,1.39-77.05,5.49c-23.28,3.94-39.68,11.58-61.81,16.2c-22.68,4.7-48.39,6.25-73.94,6.33
				c-6.33,0.04-12.66,0-18.98-0.04C-93.28-149.35-93.28-149.07-92.76-149.07L-92.76-149.07z"/>
		</g>
		<g id="XMLID_12_">
			<path id="XMLID_156_" class="st2" d="M683.81-216.01c-29.49-0.72-58.94-1.31-88.47-1.47c-28.85-0.16-58.62,0.16-87.04,2.19
				c-28.14,2.03-54.84,5.65-80.83,10.15c-24.91,4.34-48.95,9.35-74.18,13.41c-25.11,4.06-51.22,6.85-78.52,7.6
				c-27.34,0.76-54.8,0-82.1-0.72c-53.13-1.39-109.13-2.75-157.36,7.4c-12.58,2.67-24.32,5.81-36.65,8.6
				c-12.06,2.75-24.71,4.93-38.25,6.41c-27.26,2.95-55.96,3.14-84.05,2.83c-7.08-0.08-14.17-0.2-21.25-0.32c-0.8,0-0.76,0.44,0,0.44
				c27.94,1.07,56.23,2.15,84.33,1.11c13.69-0.52,27.34-1.47,40.36-3.18C-7-163.32,5.14-165.95,17-168.73
				c12.06-2.87,24.04-5.81,37.17-7.92c12.26-1.95,25.15-3.3,38.25-4.14c26.47-1.67,53.61-1.31,80.27-0.72
				c27.42,0.64,54.8,1.63,82.3,1.51c27.26-0.12,54.05-1.55,79.91-4.93c52.25-6.77,98.3-19.06,151.55-24.91
				c57.15-6.29,116.13-6.89,175.23-6.33c7.4,0.08,14.84,0.16,22.25,0.24C684.21-215.78,684.21-216.01,683.81-216.01L683.81-216.01z"
				/>
		</g>
		<g id="XMLID_13_">
			<path id="XMLID_159_" class="st2" d="M-100.09-170.21c26.03-0.28,51.98-0.8,77.69-2.47c12.62-0.84,25.43-2.15,37.09-4.18
				c11.5-1.99,22.53-4.34,33.75-6.57c10.94-2.15,22.05-4.26,33.79-5.69c12.26-1.51,24.99-2.35,37.81-2.63
				c25.91-0.56,51.78,0.76,77.49,1.79c25.99,1.07,52.1,1.79,78.12,0.4c26.74-1.43,52.41-4.82,77.53-8.48
				c49.03-7.12,96.95-15.32,148.53-19.5c54.24-4.42,111.2-4.78,166.28-2.83c6.81,0.24,13.61,0.52,20.38,0.84
				c0.56,0.04,0.68-0.32,0.12-0.36c-54.48-3.58-110.08-4.93-165.04-2.23c-52.85,2.59-102.04,9.95-151.43,17.19
				c-24.75,3.62-49.63,7.32-75.42,9.75c-26.11,2.47-52.25,2.79-78.96,1.95c-25.99-0.8-51.78-2.39-77.88-2.67
				c-25.91-0.28-51.22,1.07-75.14,4.97c-22.96,3.74-43.9,9.03-66.66,12.97c-24.87,4.3-51.5,5.89-78.52,6.89
				c-6.53,0.24-13.05,0.44-19.58,0.64C-100.45-170.41-100.45-170.21-100.09-170.21L-100.09-170.21z"/>
		</g>
		<g id="XMLID_14_">
			<path id="XMLID_164_" class="st2" d="M362.64-208.25c-16.28,1.79-32.79,3.3-49.39,4.58c-16.52,1.23-33.19,1.99-49.99,2.43
				c-16.87,0.4-33.87,0.56-50.78,0.32c-17.35-0.2-34.62-0.88-51.9-1.59c-33.47-1.43-67.54-2.75-100.93-0.36
				c-15.92,1.11-31.12,3.22-45.17,6.25c-6.96,1.51-13.73,3.14-20.97,4.46c-7.12,1.27-14.84,2.07-22.57,2.59
				c-16.24,1.07-33.03,0.88-49.47,0.68c-8.87-0.08-17.71-0.24-26.58-0.32c-8.84-0.08-17.71-0.32-26.51-0.2
				c-4.54,0.04-8.95,0-13.49,0.12c-1.75,0.04-2.19,0.96-0.44,1.19c8.52,0.99,17.47,1.51,26.27,1.95c8.84,0.48,17.79,0.84,26.7,1.03
				c16.99,0.36,34.31,0.68,51.3,0.2c16.83-0.48,32.67-2.03,47.44-5.13c7.12-1.51,14.01-3.18,21.33-4.58
				c7.04-1.31,14.41-2.35,22.01-3.14c32.16-3.38,65.95-2.43,98.7-1.11c17.59,0.72,35.22,1.47,52.89,1.75
				c8.48,0.16,17.19,0.28,25.67,0.12c8.4-0.2,16.91-0.16,25.31-0.56c33.51-1.55,67.26-3.82,98.94-8.4c4.02-0.56,8-1.19,11.98-1.79
				C363.64-207.9,363.4-208.33,362.64-208.25L362.64-208.25z"/>
		</g>
		<g id="XMLID_15_">
			<path id="XMLID_166_" class="st2" d="M104.91-208.01c14.84,0.48,29.73,0.8,44.61,0.92c14.88,0.12,29.73-0.04,44.61-0.04
				c7.4,0,14.84-0.04,22.25-0.12c7.4-0.08,14.84-0.12,22.17-0.48c12.7-0.56,25.39-1.23,37.93-2.23
				c22.96-1.83,45.73-4.86,64.39-10.35c4.46-1.31,8.68-2.75,12.46-4.38c4.38-1.87,8.87-3.94,9.59-6.49
				c0.76-2.75-4.1-4.78-10.19-5.97c-6.09-1.19-12.66-2.11-19.22-2.87c-26.9-3.06-55.72-3.14-83.54-3.38
				c-7.52-0.08-15.2,0.2-22.72,0.32c-7.56,0.12-15.16,0.32-22.72,0.4c-15.16,0.16-30.29,0.4-45.45,0.64
				c-27.38,0.44-55.04,0.99-81.98,3.02c-13.13,0.99-26.27,2.23-38.72,4.1c-5.81,0.88-11.54,1.63-16.68,2.98
				c-5.05,1.35-9.35,3.02-11.42,5.29c-4.5,4.82,4.74,9.79,15.36,12.1c5.77,1.23,12.22,1.99,18.67,2.59
				c7.04,0.68,14.13,1.27,21.29,1.67c3.62,0.2,7.2,0.24,10.82,0.28c3.74,0.04,7.52,0.24,11.3,0.32c7.32,0.2,14.53,0.64,21.81,0.96
				c14.57,0.64,29.29,1.19,43.94,1.27c7.04,0.04,14.13,0.04,21.17-0.04c0.56,0,0.56-0.32,0-0.32c-14.13-0.28-28.26-0.72-42.31-1.27
				c-7.16-0.28-14.33-0.6-21.45-0.96c-6.96-0.36-14.01-0.72-20.81-1.35c-3.1-0.32-6.25-0.64-9.35-0.96
				c-3.54-0.36-6.92-0.96-10.43-1.35c-6.65-0.76-13.41-1.27-20.14-1.87c-10.63-0.96-23.32-2.07-28.69-6.13
				c-2.07-1.55-2.19-3.3-0.04-4.78c2.31-1.59,6.37-2.75,10.43-3.7c5.21-1.19,10.43-2.31,16-3.26c5.89-0.99,11.9-1.83,18.03-2.55
				c24.67-2.95,50.82-3.66,76.49-4.06c14.33-0.24,28.65-0.36,43.02-0.36c14.57,0,29.09,0.16,43.62,0.48
				c6.96,0.16,13.93,0.48,20.89,0.56c7.16,0.08,14.29,0.16,21.45,0.24c12.89,0.2,25.87,0.44,38.64,1.23
				c12.34,0.76,24.71,1.95,36.02,3.98c1.91,0.36,4.54,0.76,5.65,1.43c1.03,0.64,0.44,1.31-0.44,1.99c-2.31,1.79-6.57,3.34-10.31,4.7
				c-15.52,5.61-35.86,8.76-56.35,10.86c-10.83,1.11-21.89,1.95-32.95,2.59c-6.85,0.4-13.77,0.64-20.58,1.15
				c-6.65,0.52-13.37,0.92-20.06,1.27c-7.08,0.4-14.21,0.8-21.33,1.11c-7.08,0.32-14.29,0.44-21.41,0.56
				c-14.29,0.24-28.57,0.32-42.86,0.24c-6.85-0.04-13.69-0.12-20.5-0.24C104.71-208.13,104.71-208.01,104.91-208.01L104.91-208.01z"
				/>
		</g>
		<g id="XMLID_22_">
			<path id="XMLID_173_" class="st2" d="M156.81-213.51c15.88,0.04,31.76-0.28,47.56-0.92c7.84-0.32,15.64-0.72,23.44-1.19
				c7.84-0.48,15.68-0.88,23.52-1.35c7.92-0.48,16-0.84,23.72-1.71c7.68-0.88,15.28-1.83,22.84-2.87
				c7.56-1.03,15.04-2.19,22.45-3.38c3.1-0.52,6.17-1.19,7.8-2.39c1.91-1.39,0.99-3.14-2.11-4.18c-2.63-0.88-6.01-1.23-9.35-1.51
				c-3.82-0.32-7.6-0.64-11.42-0.96c-7.92-0.6-16-0.84-24.04-0.99c-7.88-0.16-15.76-0.32-23.64-0.4c-7.76-0.08-15.56-0.4-23.32-0.56
				c-15.72-0.28-31.48-0.28-47.2-0.12c-7.92,0.08-15.84,0.32-23.8,0.36c-7.92,0.04-15.8,0.16-23.68,0.32
				c-3.86,0.08-7.72,0.2-11.58,0.24c-4.02,0-7.96,0.24-11.94,0.48c-7.88,0.44-15.72,0.92-23.52,1.51
				c-15.4,1.19-30.6,2.83-45.57,4.66c-3.7,0.44-7.4,0.92-11.1,1.43c-4.42,0.6-5.09,2.67-1.27,3.66c8.2,2.15,17.23,4.38,26.78,5.53
				c4.74,0.56,9.51,1.07,14.25,1.63c4.78,0.56,9.63,1.03,14.53,1.43c19.22,1.59,38.8,2.55,58.5,2.19
				c11.02-0.2,22.21-0.68,32.79-1.91c0.52-0.04,0.28-0.32-0.2-0.28c-9.83,0.6-19.62,1.19-29.57,1.39c-9.51,0.2-19.02,0.08-28.5-0.28
				c-9.67-0.4-19.78-1.11-29.01-2.31c-8.95-1.15-17.91-2.43-26.03-4.34c-9.39-2.15-19.14-4.1-28.18-6.49
				c-0.44,1.23-0.84,2.43-1.27,3.66c14.21-1.87,28.65-3.5,43.26-4.9c7.28-0.68,14.61-1.35,21.93-1.99
				c3.66-0.32,7.32-0.68,10.98-0.96c3.66-0.28,7.44-0.48,11.06-0.8c3.66-0.32,7.16-0.8,10.82-1.07c3.66-0.28,7.32-0.56,10.98-0.8
				c7.48-0.52,15.08-1.07,22.64-1.27c15-0.4,30.09-0.6,45.13-0.4c15.24,0.2,30.72,0.48,45.73,1.55c14.73,1.07,29.01,2.79,43.66,3.9
				c3.7,0.28,7.36,0.56,11.02,0.92c1.23,0.12,2.07,0.2,2.79,0.36c0.12,0.04,0.28,0.08,0.28,0.08c-0.12-0.16-0.36-0.32-0.44-0.48
				c0,0,0.2-0.24,0.24-0.24s-0.4,0.12-0.52,0.16c-0.6,0.16-1.27,0.28-1.95,0.4c-1.55,0.28-3.14,0.52-4.74,0.76
				c-3.5,0.56-7.04,1.07-10.59,1.59c-7.08,1.03-14.25,1.99-21.49,2.91c-7.24,0.88-14.73,1.71-21.77,2.83
				c-14.01,2.23-28.81,3.5-43.74,4.54c-15.12,1.03-30.45,1.75-45.77,2.19c-3.78,0.12-7.6,0.2-11.38,0.24
				C156.65-213.63,156.65-213.51,156.81-213.51L156.81-213.51z"/>
		</g>
		<g id="XMLID_26_">
			<path id="XMLID_180_" class="st2" d="M160.87-217.01c8.36,0.24,16.75,0.24,25.07-0.04c8.12-0.28,16.08-0.92,24.12-1.35
				c1.95-0.12,3.94-0.16,5.89-0.28c2.07-0.12,4.06-0.4,6.13-0.56c4.38-0.32,8.24-0.92,12.34-1.59c7.72-1.27,15-2.83,21.93-4.66
				c1.99-0.52,3.1-1.35,2.47-2.27c-2.35-3.34-12.7-3.58-20.18-3.5c-9.23,0.08-18.47,0.08-27.74,0.2
				c-9.11,0.12-18.27,0.16-27.38,0.32c-9.11,0.16-18.19,0.44-27.26,0.68c-9.19,0.24-18.35,0.32-27.46,0.76
				c-4.7,0.24-9.35,0.44-14.01,0.72c-4.46,0.28-8.87,0.48-13.01,1.15c-3.34,0.56-6.61,1.47-8.08,2.75c-1.83,1.59-0.36,3.34,3.5,4.26
				c3.34,0.84,7.8,0.99,11.62,1.23c4.46,0.28,8.91,0.6,13.41,0.92c9.71,0.64,19.66,1.07,29.53,1.27
				c10.07,0.16,19.82-0.04,29.73-0.72c0.48-0.04,0.4-0.36-0.12-0.32c-8,0.16-16.08,0.16-24.12,0.04c-8.16-0.12-16.4-0.36-24.4-0.99
				c-7.76-0.64-15.36-1.39-22.57-2.67c-1.71-0.28-3.38-0.6-5.05-0.92c-0.56-0.12-1.07-0.28-1.63-0.36c-0.2-0.04-0.76-0.12-0.44-0.08
				c0.28,0.04-0.28-0.08,0-0.16c-0.04,0-0.2,0.24-0.24,0.24c0.52-0.24-0.12-0.04,0.52-0.28c0.6-0.2,1.91-0.52,2.75-0.64
				c1.59-0.24,3.34-0.36,4.97-0.56c1.91-0.24,3.86-0.48,5.81-0.72c4.02-0.48,8.04-0.92,12.06-1.35c3.9-0.4,7.88-0.68,11.74-1.15
				c3.9-0.48,7.72-0.8,11.74-1.07c8.32-0.56,16.6-0.96,25.03-1.11c8.2-0.16,16.56-0.32,24.75-0.12c9.23,0.24,18.59,0.6,27.66,1.31
				c4.34,0.36,8.6,0.84,12.97,1.11c1.55,0.12,3.22,0.2,4.7,0.44c0.04,0,0.92,0.2,0.92,0.2c-0.36-0.08,0.24,0.08,0.24,0.12
				c-0.2-0.12-0.44-0.36-0.2,0c0.84-0.76,1.63-1.51,2.47-2.27c-6.73,1.71-13.77,3.26-21.01,4.62c-3.54,0.68-7.04,1.27-10.43,1.99
				c-1.83,0.4-3.7,0.68-5.57,1.03c-1.75,0.32-3.34,0.72-5.09,0.99c-7.24,1.23-15.36,1.87-23.2,2.35c-8.2,0.52-16.48,0.76-24.79,0.8
				C160.71-217.13,160.71-217.01,160.87-217.01L160.87-217.01z"/>
		</g>
		<g id="XMLID_137_">
			<path id="XMLID_172_" class="st2" d="M299.12-201.89c12.58,1.03,25.67,0.84,38.17-0.32c6.61-0.6,13.09-1.43,19.42-2.35
				c6.37-0.96,12.89-1.87,18.98-3.02c12.3-2.35,24.32-4.93,36.65-7.28c12.34-2.35,25.03-4.38,38.13-6.05
				c26.15-3.34,53.65-5.33,81.03-6.53c28.14-1.23,56.35-1.35,84.65-1.27c28.38,0.08,56.71,0.24,85.01,0.92
				c3.42,0.08,6.85,0.16,10.27,0.24c0.68,0,0.84-0.4,0.16-0.44c-13.85-0.76-27.74-1.43-41.59-2.15
				c-14.17-0.72-28.38-1.43-42.62-1.75c-28.14-0.68-56.35-0.56-84.45,0.4c-27.9,0.96-55.68,2.79-82.38,6.01
				c-13.29,1.59-26.39,3.42-39.12,5.57c-12.74,2.15-24.87,4.78-37.01,7.36c-23.44,4.93-47.72,10.59-75.46,10.67
				c-3.26,0-6.49-0.08-9.75-0.2C298.85-202.12,298.77-201.93,299.12-201.89L299.12-201.89z"/>
		</g>
		<g id="XMLID_144_">
			<path id="XMLID_201_" class="st2" d="M271.58-205.19c14.76,1.19,29.73,0.24,44.02-1.35c3.7-0.4,7.32-0.88,11.06-1.23
				c3.66-0.36,7.12-0.88,10.75-1.31c7.12-0.8,14.01-1.87,20.85-2.98c27.78-4.42,55.4-8.99,83.3-13.33
				c27.62-4.26,55.76-8.2,84.81-10.86c30.6-2.83,61.97-3.98,93.41-4.14c15.92-0.08,31.88,0.08,47.8,0.32
				c16.08,0.28,32.12,0.64,48.23,0.28c3.98-0.08,7.96-0.12,11.9-0.2c1.63-0.04,2.19-0.99,0.4-1.15c-7.68-0.56-15.36-1.19-23.12-1.67
				c-8.12-0.48-16.4-0.8-24.6-0.99c-15.92-0.44-31.88-0.68-47.84-0.72c-31.96-0.08-64.03,0.72-95.4,3.14
				c-29.25,2.27-57.79,5.81-85.45,10.03c-27.98,4.26-55.6,8.95-82.7,13.97c-6.73,1.23-13.65,2.31-20.5,3.46
				c-3.38,0.56-6.81,1.15-10.15,1.75c-1.59,0.28-3.06,0.68-4.7,0.96c-1.75,0.32-3.54,0.56-5.25,0.92
				c-13.69,2.75-29.09,4.86-44.73,5.09c-4.02,0.08-8.04,0-12.02-0.24C271.39-205.39,271.27-205.23,271.58-205.19L271.58-205.19z"/>
		</g>
		<g id="XMLID_145_">
			<path id="XMLID_208_" class="st2" d="M139.5-246.98c40-1.15,80.31-2.31,120.47-1.55c19.62,0.36,39,1.27,58.07,3.14
				c18.51,1.79,36.53,4.22,54.84,6.25c18.03,2.03,36.49,3.74,55.4,4.02c19.78,0.32,38.48-1.43,57.19-3.7
				c37.73-4.62,75.97-8.36,115.25-10.51c39.52-2.19,79.6-2.95,119.47-2.27c4.86,0.08,9.75,0.2,14.61,0.32c0.68,0,0.68-0.4,0-0.4
				c-39.6-1.47-79.52-1.59-119.19-0.28c-39.48,1.27-78.96,3.82-117.09,7.92c-18.78,2.03-37.45,4.66-57.11,5.05
				c-18.59,0.4-37.01-0.92-54.92-2.75c-18.43-1.87-36.42-4.34-54.76-6.33c-19.02-2.07-38.44-3.42-58.18-4.02
				c-40.24-1.19-80.15,1.15-119.59,3.94c-4.82,0.36-9.67,0.68-14.49,1.03C139.22-247.1,139.26-246.98,139.5-246.98L139.5-246.98z"/>
		</g>
		<g id="XMLID_151_">
			<path id="XMLID_215_" class="st2" d="M150.16-247.18c-26.35,0.99-52.73,2.11-79.12,2.91c-11.22,0.36-22.45,0.6-33.59,1.11
				c-5.17,0.24-10.43,0.36-15.52,0.72c-4.97,0.36-9.95,0.76-14.84,1.27c-9.71,0.99-19.06,2.51-27.42,4.66
				c-4.18,1.07-8.24,2.31-11.82,3.66c-3.82,1.47-6.96,3.1-10.27,4.74s-6.92,3.18-11.62,4.22c-4.74,1.07-10.03,1.67-15.32,2.23
				c-12.38,1.27-24.87,2.35-37.41,3.34c-28.61,2.27-57.39,4.06-86.52,5.01c-1.15,0.04-1.15,0.68,0,0.68
				c26.03,0.2,51.94-0.4,77.76-1.63c12.93-0.6,25.91-1.59,38.6-2.71c11.74-1.03,24.12-2.03,33.63-5.01
				c4.46-1.39,7.88-3.18,11.34-4.93c3.06-1.51,6.33-2.95,10.07-4.26c7.08-2.43,15.72-4.14,24.44-5.57
				c18.82-3.02,39.12-4.3,59.18-5.53c29.41-1.83,58.94-3.26,88.47-4.78C150.52-246.98,150.44-247.18,150.16-247.18L150.16-247.18z"
				/>
		</g>
		<g id="XMLID_158_">
			<path id="XMLID_222_" class="st2" d="M-191.66-195.12c15.92,0.52,31.92,0.96,47.92,1.07c15.92,0.12,31.92-0.04,47.84-0.44
				c16.08-0.36,32.2-1.19,48.16-2.03c15.84-0.84,31.6-1.79,47.28-2.95c3.94-0.28,7.84-0.6,11.74-0.88c3.26-0.24,6.69-0.44,9.83-0.92
				c3.26-0.52,6.37-1.35,7.4-2.71c1.11-1.47-0.68-2.79-2.95-3.94c-7.92-3.98-19.98-6.57-32.75-7.68c-7.04-0.6-14.25-0.76-21.41-0.76
				c-4.1,0-8.32,0.2-12.38,0.44c-3.94,0.24-7.92,0.44-11.74,0.84c-3.82,0.4-7.84,0.6-11.74,0.88c-3.94,0.32-7.88,0.6-11.82,0.88
				c-7.92,0.52-15.84,0.99-23.8,1.43c-32.08,1.71-64.75,2.19-97.11,2.11c-4.02,0-8.08-0.04-12.1-0.08c-0.32,0-0.32,0.16,0,0.16
				c30.76,0.52,61.61,0.4,92.33-0.4c15.48-0.4,30.92-0.8,46.36-1.31c15.16-0.52,30.33-1.19,45.61-1.03
				c11.86,0.12,24.04,1.23,33.91,3.86c2.19,0.6,4.22,1.31,6.05,2.07c0.76,0.32,1.51,0.64,2.15,0.99c0.12,0.08,1.03,0.68,1.15,0.68
				c-0.64,0,0.4-0.6,0.4-0.68c0,0.12-1.03,0.28-1.43,0.32c-1.55,0.2-3.22,0.32-4.82,0.44c-3.62,0.28-7.24,0.56-10.86,0.84
				c-29.85,2.27-59.98,3.9-90.3,4.97c-30.41,1.07-60.77,2.31-91.26,2.91c-3.86,0.08-7.68,0.16-11.54,0.2
				C-192.46-195.6-192.42-195.16-191.66-195.12L-191.66-195.12z"/>
		</g>
		<g id="XMLID_160_">
			<path id="XMLID_229_" class="st2" d="M-173.79-229.23c28.57,1.99,58.5,1.51,86.12-1.99c14.05-1.79,27.38-4.18,40.04-7.08
				c13.33-3.06,26.27-6.45,40.87-8.64c14.13-2.11,29.09-3.3,44.06-4.14c7.8-0.44,15.64-0.68,23.44-1.03
				c7.96-0.36,15.76-0.96,23.64-1.51c16.68-1.15,34.07-1.59,50.98-2.15c16.68-0.56,33.35-1.07,50.07-1.59
				c16.99-0.56,33.95-1.03,50.98-1.39c16.83-0.32,33.59-0.84,50.22,0.48c15.36,1.23,29.97,3.66,45.09,5.25
				c13.85,1.43,28.02,2.43,42.27,3.1c58.3,2.71,117.4-1.23,174.55-5.45c58.22-4.3,117.84-8.68,177.42-8.32
				c7.44,0.04,14.84,0.2,22.29,0.4c0.72,0.04,0.68-0.4,0-0.44c-58.9-2.79-117.8,0.48-175.87,4.22
				c-58.07,3.74-117.48,7.64-176.54,6.33c-14.37-0.32-28.69-0.96-42.82-1.99c-14.8-1.11-28.81-3.02-43.3-4.5
				c-7.48-0.76-15.04-1.43-22.76-1.79c-8.28-0.4-16.79-0.24-25.11-0.04c-16.72,0.4-33.27,1.39-49.99,1.91
				c-33.35,0.99-66.7,2.27-100.09,2.98c-8.48,0.2-16.99,0.48-25.47,0.56c-8.24,0.08-16.4-0.16-24.63,0
				c-15.08,0.36-30.29,1.11-45.05,2.31s-29.09,3.06-42.38,5.77c-13.65,2.79-26.27,6.21-40,8.91c-26.47,5.25-55.68,8.24-85.37,9.31
				c-7.44,0.28-14.96,0.32-22.45,0.28C-174.03-229.43-174.11-229.23-173.79-229.23L-173.79-229.23z"/>
		</g>
		<g id="XMLID_161_">
			<path id="XMLID_236_" class="st2" d="M656.71-93.36c-25.67-0.4-53.25-0.76-76.37,4.18c-19.18,4.1-33.71,10.86-47.84,17.07
				c-7.24,3.18-14.73,6.33-23.12,9.11c-9.67,3.18-20.81,5.37-33.03,6.89c-13.25,1.63-27.14,2.35-40.95,2.98
				c-14.88,0.68-29.85,1.19-44.81,1.63c-30.05,0.92-60.61,0.8-90.7,0.12c-14.37-0.32-29.09-0.8-42.66-2.75
				c-11.1-1.59-20.06-4.34-29.49-7c-17.83-5.05-34.39-11.06-54.72-14.65c-25.23-4.5-54.44-4.3-81.74-4.34
				c-29.85-0.08-59.66-0.12-89.51,0.32c-15,0.24-30.01,0.56-44.93,1.15c-14.41,0.6-29.49,1.03-43.5,2.43
				c-6.89,0.68-13.41,1.47-19.98,2.51c-1.55,0.24-0.68,1.15,0.84,1.15c14.69-0.12,29.05-0.92,43.62-1.55
				c14.88-0.64,29.85-1.07,44.77-1.43c29.53-0.68,59.14-0.76,88.71-0.72c15,0,30.01-0.04,44.97,0.2c14.01,0.2,28.26,0.68,41.71,2.23
				c21.53,2.51,38.68,8,56.31,13.05c19.26,5.53,41.71,9.47,65.91,10.39c14.69,0.56,29.61,0.64,44.37,0.68
				c15,0.08,30.01,0,44.97-0.24c28.81-0.44,57.79-0.96,86.28-2.79c24.67-1.59,47.36-4.93,66.54-11.1
				c16.87-5.45,30.21-12.26,46.68-17.87c8.12-2.75,17.31-5.21,27.3-6.92c12.62-2.15,26.31-3.1,40-3.58
				c6.77-0.24,13.53-0.4,20.3-0.52C657.7-92.76,657.7-93.32,656.71-93.36L656.71-93.36z"/>
		</g>
		<g id="XMLID_163_">
			<path id="XMLID_242_" class="st2" d="M666.5-83.49c-24.32-2.31-51.58,0.56-73.47,4.66c-23.32,4.38-43.62,10.51-64.63,16.24
				c-10.19,2.79-20.1,5.81-31.28,8c-12.02,2.39-24.71,4.1-37.97,5.13c-13.97,1.07-28.22,1.51-42.38,1.91
				c-13.97,0.4-27.94,0.84-41.91,1.31c-28.1,0.96-56.75,2.39-85.01,2.03c-25.07-0.32-48.2-4.74-69.65-9.23
				c-22.17-4.66-44.53-9.07-69.17-11.58c-26.23-2.71-53.25-3.86-80.11-5.25c-13.37-0.68-26.62-1.55-40.08-1.91
				c-13.81-0.36-27.7-0.32-41.55-0.08c-14.05,0.24-28.06,0.76-42.03,1.35c-13.41,0.56-27.22,0.99-40.36,2.15
				c-6.53,0.6-13.05,1.15-19.58,1.71c-1.83,0.16-1.39,1.23,0.44,1.23c13.73,0.04,27.14-0.08,40.79-0.6
				c13.73-0.56,27.42-1.11,41.15-1.51c27.38-0.8,54.92-1.07,82.14,0.52c26.7,1.51,53.65,2.55,80.07,4.66
				c25.55,2.03,49.43,5.41,73.15,9.47c11.14,1.91,22.45,3.62,33.79,5.37c11.34,1.71,23.12,3.26,35.14,4.18
				c12.02,0.92,24.08,0.76,36.3,0.52c14.37-0.24,28.65-0.72,42.98-1.23c14.09-0.52,28.18-1.07,42.31-1.43
				c14.01-0.36,28.06-0.44,42.03-0.92c13.29-0.44,26.55-1.19,39.36-2.67c11.98-1.39,23.48-3.42,34.54-5.65
				c22.49-4.5,42.11-10.59,62.88-16.08c21.49-5.69,45.97-10.94,72.55-11.82c6.41-0.2,12.97-0.2,19.38,0
				C667.02-83.01,667.14-83.41,666.5-83.49L666.5-83.49z"/>
		</g>
		<g id="XMLID_165_">
			<path id="XMLID_243_" class="st2" d="M660.93-74.57c-24.71-1.71-50.58,1.63-71.24,6.73c-22.25,5.45-41.67,12.5-65.07,17.31
				c-23.08,4.78-48.75,7.24-74.5,8.84c-28.06,1.75-56.23,2.71-84.69,2.79c-29.05,0.08-58.46-0.24-87.24-1.87
				c-14.21-0.8-28.22-1.95-41.95-3.54c-13.69-1.59-26.74-3.74-40.12-5.65C144.43-57.3,88.83-60.64,33.87-61.84
				c-55.4-1.19-110.64,0.28-165.16,4.06c-6.65,0.48-13.29,0.96-19.94,1.47c-0.92,0.08-0.76,0.68,0.24,0.64
				c54.76-2.03,110.24-3.1,165.24-2.55c55.32,0.56,109.48,3.78,162.69,9.47c27.06,2.91,53.77,6.53,81.47,8.48
				c28.06,1.95,56.95,2.55,85.49,2.79c28.57,0.24,57.35-0.12,85.88-0.8c25.83-0.64,51.78-2.23,76.13-5.65
				c24.63-3.46,45.29-9.19,65.71-15.28c20.54-6.17,43.02-12.66,69.29-14.65c6.57-0.52,13.25-0.64,19.94-0.48
				C661.13-74.37,661.21-74.57,660.93-74.57L660.93-74.57z"/>
		</g>
		<g id="XMLID_200_">
			<path id="XMLID_250_" class="st2" d="M662.56-61.88c-24.24-1.99-49.07,0.68-70.72,4.86c-11.22,2.15-21.81,4.74-32.24,7.4
				c-10.35,2.63-20.22,5.53-30.64,8.12c-10.59,2.63-21.77,4.93-33.71,6.57c-12.66,1.75-26.35,2.47-39.68,2.95
				c-26.58,0.96-53.53,0.88-80.23,0.92c-53.77,0.08-108.81-0.64-160.31-7.08c-25.67-3.18-50.42-7.4-76.93-9.55
				c-26.55-2.15-53.81-2.71-80.91-2.87c-28.06-0.12-56.15-0.04-84.25,0.12c-28.22,0.2-56.91,0-84.93,1.39
				c-6.69,0.32-13.37,0.68-20.02,1.15c-1.59,0.12-1.03,0.96,0.36,0.99c14.05,0.52,28.3,0.92,42.42,0.84
				c14.17-0.08,28.3-0.24,42.46-0.32c28.06-0.16,56.11-0.24,84.13-0.24c27.22,0,54.68,0.04,81.63,1.55
				c26.82,1.51,52.17,4.97,78,7.96c50.9,5.85,105.07,7.24,158,7.28c26.86,0.04,53.77-0.24,80.63-0.56
				c25.51-0.28,51.14-1.35,75.02-4.93c22.96-3.46,43.66-8.52,64.19-13.65c20.58-5.13,43.38-10.19,68.01-11.78
				c6.37-0.4,12.93-0.56,19.38-0.48C663.23-61.28,663.43-61.84,662.56-61.88L662.56-61.88z"/>
		</g>
		<g id="XMLID_207_">
			<path id="XMLID_257_" class="st2" d="M-87.79-8.63C-60.61-7.99-33.43-7.43-6.2-7.35c27.06,0.08,54.16-0.99,80.67-3.02
				c13.09-1.03,26.03-2.31,38.64-3.94c12.66-1.63,25.39-3.5,37.17-5.93c5.33-1.07,10.67-2.71,12.06-5.09
				c1.43-2.43-1.23-5.01-6.01-6.69c-4.9-1.71-11.42-2.47-17.91-2.79c-7-0.36-14.05-0.6-21.05-0.92c-27.58-1.19-55.2-2.23-82.9-2.83
				c-27.7-0.6-55.48-0.68-83.18,0.04c-27.5,0.72-54.96,2.15-81.39,5.17c-12.97,1.47-25.71,3.22-38.13,5.29
				c-5.41,0.92-10.9,1.79-15.64,3.18c-3.7,1.07-7.28,2.47-8.16,4.26c-2.11,4.38,12.06,6.85,20.58,8.28
				c11.14,1.91,23.12,2.98,35.18,3.74C-111.15-7.04-85.44-7-60.05-6.64c6.09,0.08,12.7,0.12,18.63,0.64
				c1.35,0.12,1.91-0.68,0.56-0.8c-2.91-0.28-5.73-0.68-8.64-0.96c-3.14-0.32-6.29-0.6-9.47-0.84c-5.97-0.48-11.98-0.8-18.07-0.92
				c-12.18-0.2-24.4-0.24-36.57-0.28c-11.98-0.04-24.08-0.16-35.86-1.03c-11.3-0.84-23.48-2.15-32.99-4.7
				c-4.62-1.23-8.76-3.14-6.77-5.41c1.67-1.91,6.57-3.06,11.06-3.9c5.45-0.99,11.46-1.63,17.23-2.31c6.21-0.72,12.5-1.39,18.78-1.99
				c12.78-1.23,25.67-2.11,38.64-2.98c12.78-0.88,25.63-1.55,38.52-2.03c52.57-1.91,105.66-0.8,158.12,1.19
				c13.13,0.48,26.27,1.03,39.36,1.67c5.13,0.24,11.18,0.52,15.36,1.71c1.75,0.52,3.22,1.23,3.9,1.95c0.72,0.8,0.68,1.31-0.6,2.07
				c-2.67,1.51-8.95,2.35-13.33,3.14c-5.61,0.99-11.26,1.91-17.03,2.75c-11.86,1.71-24,3.1-36.34,4.26
				c-24.63,2.27-49.99,3.5-75.26,4.26c-12.93,0.4-25.83,0.96-38.8,1.23c-12.93,0.28-25.87,0.52-38.8,0.68
				c-6.45,0.08-12.85,0.16-19.3,0.24C-88.35-8.95-88.35-8.63-87.79-8.63L-87.79-8.63z"/>
		</g>
		<g id="XMLID_214_">
			<path id="XMLID_264_" class="st2" d="M-117.84-13.92c15.84,0.36,31.68,0.72,47.52,0.99c15.96,0.24,32,0.56,48,0.44
				c16-0.12,31.8-0.48,47.64-1.27c15.56-0.8,31-1.91,46.17-3.46c8.36-0.84,16.99-1.71,24.95-2.98c7.08-1.15,13.57-3.38,12.06-6.53
				c-0.44-0.92-2.87-1.39-5.01-1.43c-21.97-0.68-44.02-1.27-66.06-1.31c-5.45,0-10.94-0.16-16.4-0.2c-5.45-0.04-10.94,0-16.4-0.12
				c-10.94-0.28-21.81-0.28-32.79-0.2c-22.13,0.16-44.26,1.15-65.98,2.75c-10.63,0.76-21.61,1.51-31.96,2.71
				c-7.88,0.92-18.35,3.54-16,7.2c1.43,2.23,6.92,3.22,12.22,3.86c6.01,0.72,12.38,1.39,18.74,1.23c5.89-0.16,11.82,0.04,17.75-0.08
				c6.05-0.12,12.06-0.28,18.03-0.64c0.84-0.04,0.6-0.56-0.2-0.56c-10.27,0.04-20.54-0.28-30.49-1.27
				c-2.35-0.24-4.46-0.72-6.73-0.99c-2.55-0.32-5.13-0.6-7.72-0.88c-2.19-0.24-4.38-0.48-6.53-0.72c-1.51-0.2-3.38-0.36-4.42-0.76
				c-0.32-0.12-0.56-0.24-0.16-0.08c0.04,0-0.8-0.36-0.08-0.04c-0.08-0.04,0.08-0.44-0.04-0.04c0.12-0.32,0.16-0.16-0.04-0.08
				c0.8-0.48,1.39-0.8,2.59-1.11c3.26-0.92,6.53-1.23,10.47-1.59c10.03-0.96,20.14-1.83,30.33-2.59c10.03-0.72,20.1-1.35,30.13-1.99
				c9.99-0.64,20.02-1.07,30.09-1.55c10.31-0.52,20.69-0.84,31.04-1.19c10.15-0.36,20.46-0.2,30.64-0.04
				c11.5,0.16,23.16,0.84,34.58,1.47c11.46,0.64,22.76,1.59,33.99,2.71c-1.27-0.64-2.55-1.27-3.82-1.91c0,0.36,0.16,0,0,0.32
				c-0.08,0.12-0.16,0.28-0.28,0.4c0.04-0.04,0.24-0.2-0.04,0c-0.36,0.28-1.11,0.56-1.95,0.8c-1.95,0.56-4.42,0.96-6.77,1.23
				c-7.04,0.92-14.17,1.75-21.37,2.47c-14.49,1.47-29.21,2.55-44.06,3.34c-14.88,0.8-29.89,1.43-44.85,1.95
				c-15.12,0.48-30.25,0.96-45.45,1.19c-17.11,0.24-34.23,0.36-51.38,0.48C-118.12-14.08-118.12-13.92-117.84-13.92L-117.84-13.92z"
				/>
		</g>
		<g id="XMLID_221_">
			<path id="XMLID_263_" class="st2" d="M-35.85-1.94c53.57,3.1,106.62-1.23,157.8-7.04c26.35-2.98,52.57-6.13,79.36-8.56
				c28.1-2.55,56.47-4.02,85.37-4.26c30.25-0.28,60.45,0.52,90.66,0.99c14.73,0.24,29.49,0.52,44.26,0.28
				c13.85-0.2,27.74-0.52,41.55-1.07c27.26-1.07,54.52-2.95,80.15-6.77c26.58-3.98,50.11-10.31,76.85-14.17
				c27.06-3.94,55.84-6.13,84.41-7.76c15-0.88,30.17-1.47,45.33-1.79c15.12-0.32,30.09-0.04,45.21,0.2
				c7.32,0.12,14.69,0.32,22.01,0.56c0.99,0.04,1.11-0.52,0.24-0.64c-28.42-3.1-58.86-2.75-88.03-1.55
				c-28.77,1.19-57.75,3.22-85.53,6.33c-13.33,1.47-26.39,3.3-38.96,5.53c-13.05,2.35-25.47,5.17-38.33,7.68
				c-25.51,4.93-52.85,7.96-81.27,9.39c-27.58,1.39-55.2,0.72-82.82,0.32c-30.49-0.4-60.89-1.27-91.42-1.47
				c-29.57-0.16-59.06,0.44-88.19,2.47c-26.98,1.91-53.41,4.82-79.68,7.8c-26.23,2.98-52.37,6.05-78.88,8.68
				C38.09-4.21,11.31-2.18-15.8-1.94c-6.69,0.04-13.37,0-20.02-0.16C-36.09-2.18-36.17-1.98-35.85-1.94L-35.85-1.94z"/>
		</g>
		<g id="XMLID_228_">
			<path id="XMLID_256_" class="st2" d="M-63.04,6.1C-10.7,7.53,42.19,8.68,94.01,4.78C143.4,1.04,189.36-7.35,238.87-10.9
				c52.21-3.74,106.1-2.51,158.95-2.94c26.43-0.2,52.81-0.72,79.04-1.91c25.75-1.19,50.86-3.22,75.78-5.97
				c48.2-5.33,99.14-12.02,149.88-7.84c5.85,0.48,11.7,1.11,17.47,1.75c0.56,0.08,0.96-0.28,0.4-0.36
				c-21.13-4.1-46.25-4.86-69.57-4.18c-25.43,0.76-50.19,3.22-74.7,5.81c-25.23,2.67-50.54,5.01-76.45,6.57
				c-26.47,1.55-53.21,2.27-79.95,2.71c-52.89,0.88-106.18-0.4-158.87,1.91c-51.06,2.23-98.22,9.99-147.13,15.4
				C88.47,2.83,63.08,4.86,36.82,5.66c-26.66,0.8-53.49,0.68-80.19,0.48c-6.57-0.04-13.09-0.12-19.66-0.16
				C-63.27,5.94-63.27,6.1-63.04,6.1L-63.04,6.1z"/>
		</g>
		<g id="XMLID_235_">
			<path id="XMLID_249_" class="st2" d="M692.53-22.52c-25.51-0.08-51.34,0.56-76.65,1.87c-12.97,0.68-25.87,1.55-38.48,2.91
				c-12.46,1.31-24.63,2.95-36.81,4.58c-24.95,3.34-49.83,6.09-76.17,7.28c-25.47,1.15-51.22,1.31-76.85,1.27
				c-25.83-0.04-51.62-0.24-77.41,0.32c-25.79,0.56-51.1,1.95-76.29,4.02c-25.75,2.15-51.34,4.58-77.17,6.61
				c-26.35,2.03-53.17,3.06-80.03,3.3C22.89,10.2-30.68,7.97-83.97,5.46c-6.73-0.32-13.45-0.64-20.18-0.92
				c-0.52-0.04-0.64,0.32-0.12,0.36c52.85,3.3,106.26,6.17,159.87,6.65c26.47,0.24,53.01-0.24,79.28-1.59
				c26.23-1.35,51.9-3.66,77.65-5.89c25.59-2.23,51.26-4.38,77.45-5.37c25.91-0.99,51.98-0.92,78-0.92
				c51.18,0,102.68,0.24,151.99-5.69c25.11-3.02,49.27-7,74.98-9.27c25.63-2.27,51.66-3.42,77.84-4.3
				c6.57-0.2,13.09-0.44,19.62-0.76C692.96-22.28,693-22.52,692.53-22.52L692.53-22.52z"/>
		</g>
	</g>
	<g id="XMLID_47_">
		<g id="XMLID_143_">
			<path id="XMLID_146_" class="st2" d="M396.91,78.17c-16.36-0.88-32.48-0.08-48.2,1.31c-16.64,1.47-31.76,4.02-45.89,6.96
				c-27.94,5.77-51.3,13.69-69.92,22.05c-4.66,2.11-10.07,4.3-12.38,6.77c-2.31,2.39-0.52,4.93,4.06,7
				c4.46,1.99,10.75,3.54,17.23,4.93c6.85,1.47,14.05,2.87,21.21,4.22c15.04,2.83,30.6,5.49,47.68,7.16
				c17.23,1.71,35.5,2.55,53.49,3.18c36.1,1.27,72.75,1.31,108.81-0.12c34.66-1.35,69.29-4.02,101.6-8
				c7.16-0.88,14.37-1.79,21.33-2.83c3.22-0.48,6.45-0.88,9.79-1.31c1.99-0.24,3.66-0.4,5.49-0.8c1.79-0.4,3.58-0.8,5.29-1.19
				c12.06-2.83,22.68-6.29,29.81-10.31c2.23-1.27,4.14-2.63,4.22-4.06c0.08-1.51-2.11-2.79-5.33-3.94
				c-5.25-1.87-12.18-3.38-18.43-4.93c-13.41-3.3-27.06-6.53-41.87-9.31c-14.49-2.71-28.42-5.61-43.5-8.08
				c-15.08-2.43-31.04-4.78-47.56-6.25c-16.95-1.51-34.54-2.35-52.1-3.02c-17.43-0.64-35.22-0.76-52.69-0.2
				c-8.52,0.28-16.75,0.72-24.95,1.43c-1.19,0.12-0.68,0.6,0.52,0.56c17.03-0.92,34.23-1.63,51.58-1.51
				c16.95,0.12,34.03,0.76,50.26,2.27c31.68,2.98,62.12,6.92,90.18,12.14c6.85,1.27,13.89,2.55,20.1,4.06
				c6.25,1.51,12.46,3.06,18.51,4.66c12.5,3.26,24.67,6.61,36.77,9.99c1.83,0.52,4.58,1.15,4.86,1.95c0.36,0.99-2.07,2.11-3.66,2.95
				c-3.38,1.75-7.36,3.38-11.98,4.9c-4.62,1.51-9.67,2.87-15.12,4.1c-1.59,0.36-3.58,0.68-5.01,1.11c-1.15,0.32-2.07,0.76-3.22,1.07
				c-2.63,0.8-5.49,1.39-8.64,1.99c-26.78,5.13-58.82,7.88-89.9,9.79c-34.31,2.11-69.57,2.87-104.55,2.27
				c-17.35-0.28-34.66-1.07-51.66-2.15c-16.99-1.07-33.35-2.63-48.51-5.17c-14.61-2.43-27.78-5.45-40.87-8.52
				c-9.63-2.27-24.32-5.29-19.82-9.35c2.39-2.15,7.64-4.14,11.86-6.01c4.3-1.91,8.84-3.74,13.65-5.53
				c9.95-3.7,20.93-7.12,32.67-10.35c11.62-3.22,23.6-6.37,36.69-9.07c13.33-2.75,27.58-5.17,43.66-6.21
				c8.04-0.52,16.2-0.68,24.4-0.48C397.19,78.37,397.27,78.21,396.91,78.17L396.91,78.17z"/>
		</g>
		<g id="XMLID_141_">
			<path id="XMLID_142_" class="st2" d="M437.34,82.31c-28.81-0.99-57.71,0.8-83.73,4.46c-12.89,1.79-25.07,4.02-36.61,6.49
				c-11.5,2.47-22.49,5.09-32.16,8.16c-9.47,2.98-19.54,6.13-26.7,9.67c-7.48,3.7-10.63,8.24-0.6,11.78
				c4.34,1.55,10.55,2.63,16.28,3.7c6.09,1.11,12.34,2.19,18.67,3.22c12.89,2.03,26.35,3.82,40.2,5.21
				c13.45,1.39,27.46,2.51,41.59,3.06c14.92,0.6,30.33,0.64,45.29,0.16c7.96-0.24,15.64-0.92,23.56-1.19
				c7.52-0.28,15.08-0.4,22.61-0.68c14.8-0.56,29.57-1.31,43.98-2.51c7.24-0.6,14.37-1.31,21.45-2.07
				c6.09-0.64,11.9-1.55,17.99-2.19c2.87-0.28,5.85-0.52,8.56-0.92c2.95-0.44,5.77-0.92,8.6-1.43c5.53-0.99,10.9-2.07,15.76-3.38
				c9.19-2.43,17.31-5.29,23.6-8.4c1.59-0.8,3.02-1.59,4.3-2.43c0.72-0.48,1.63-0.96,2.11-1.43c0.84-0.84-0.04-1.47-1.55-2.15
				c-3.86-1.71-8.36-3.34-13.37-4.74c-5.09-1.43-12.02-2.03-17.75-3.18c-5.65-1.11-11.46-2.19-17.15-3.3
				c-11.9-2.31-23.84-4.62-36.1-6.73c-23.96-4.18-49.75-7.84-77.53-9.07c-6.73-0.28-13.13-0.4-19.94-0.2c-0.8,0.04-0.76,0.32,0,0.36
				c13.53,0.48,26.9,1.03,39.92,2.23c12.7,1.19,24.87,2.79,36.61,4.66c12.1,1.91,23.72,4.02,35.14,6.25
				c10.86,2.11,21.81,4.22,31.92,6.65c2.87,0.68,5.17,1.39,7.48,2.23c2.23,0.84,4.22,1.71,6.53,2.51c4.7,1.63,9.67,3.02,13.61,4.86
				c-0.24-0.52-0.44-1.03-0.68-1.55c-3.3,2.31-7.84,4.54-12.97,6.53c-5.17,2.03-11.42,3.66-17.47,5.45
				c-6.25,1.83-13.61,3.22-20.22,4.9c-3.42,0.88-7.28,1.47-11.3,2.07c-4.66,0.68-9.39,1.35-14.29,1.91
				c-20.14,2.19-41.79,3.22-63.04,3.9c-5.21,0.16-10.39,0.32-15.6,0.44c-5.49,0.12-11.18-0.08-16.68-0.2
				c-11.14-0.24-22.29-0.08-33.35-0.48c-20.1-0.76-39.72-1.87-58.82-3.86c-19.02-1.99-37.13-4.7-54.16-7.84
				c-6.29-1.15-15.16-2.55-16.32-4.86c-1.27-2.55,4.66-5.17,9.59-7.12c5.81-2.31,12.5-4.46,19.14-6.57
				c6.77-2.15,13.57-4.3,20.66-6.37c28.65-8.4,66.74-14.65,107.65-15.68c5.17-0.12,10.31-0.16,15.48-0.12
				C437.62,82.43,437.58,82.35,437.34,82.31L437.34,82.31z"/>
		</g>
		<g id="XMLID_139_">
			<path id="XMLID_140_" class="st2" d="M443.11,87.09c-10.31-0.16-20.73-0.12-30.96,0.28c-10.35,0.4-20.62,1.07-30.76,1.79
				c-10.15,0.72-20.54,1.79-29.65,3.3c-9.47,1.55-18.39,3.34-26.86,5.33c-16.44,3.86-30.76,8.56-41.75,13.81
				c-3.62,1.75-6.45,3.66-5.05,5.73c1.15,1.71,5.29,2.98,10.03,3.98c4.38,0.92,9.51,1.55,14.37,2.19
				c5.53,0.72,11.14,1.39,16.83,2.03c22.29,2.39,45.41,3.5,69.05,3.94c11.7,0.2,23.24,0.08,34.9-0.32
				c11.74-0.4,23.28-1.07,34.9-1.67c11.5-0.6,22.92-1.39,34.11-2.39c10.9-0.96,21.89-1.95,32.48-3.22c2.31-0.28,4.58-0.52,7-0.68
				c2.87-0.2,5.57-0.56,8.24-0.92c2.39-0.32,4.7-0.68,7-1.03c2.67-0.4,5.37-0.72,7.68-1.31c8.95-2.19,16.72-5.37,16.56-8.95
				c-0.16-3.38-7.72-6.21-16.32-8.24c-4.86-1.15-11.38-1.67-16.6-2.67c-5.17-0.99-10.43-1.99-15.72-2.95
				c-20.5-3.74-43.22-7.04-67.54-7.8c-6.17-0.2-12.38-0.2-18.59-0.08c-0.99,0.04-1.03,0.48,0,0.48c23.88-0.52,48.27,1.75,68.45,5.45
				c9.95,1.83,19.26,3.9,28.22,6.13c4.46,1.11,8,2.35,11.78,3.66c2.98,1.03,6.96,1.75,9.95,2.83c2.91,1.03,4.58,2.11,3.74,3.46
				c-0.96,1.51-4.06,2.79-7.04,4.02c-1.23,0.52-2.67,0.99-4.14,1.43c-1.79,0.56-3.42,1.11-5.13,1.67
				c-3.34,1.11-7.56,1.87-11.62,2.71c-2.07,0.44-3.82,0.92-6.09,1.27c-2.19,0.32-4.5,0.6-6.77,0.92
				c-5.09,0.64-10.31,1.23-15.52,1.79c-10.35,1.07-21.21,1.83-31.92,2.51c-10.83,0.68-21.53,1.11-32.59,1.23
				c-11.02,0.12-21.93-0.04-32.95-0.2c-21.65-0.32-42.54-1.39-63.4-3.1c-10.07-0.84-20.02-1.83-29.57-3.1
				c-4.9-0.64-9.87-1.27-14.45-2.11c-2.91-0.52-5.89-1.11-5.65-2.11c0.36-1.35,4.1-2.71,6.57-3.82c2.51-1.11,5.17-2.23,8.04-3.3
				c5.97-2.23,12.62-4.3,19.74-6.21c7.04-1.87,14.57-3.58,22.57-5.13c4.1-0.8,8.32-1.51,12.62-2.23c4.14-0.68,8.08-1.47,12.26-2.11
				c8.6-1.35,17.15-2.67,26.47-3.54c9.27-0.88,18.78-1.55,28.42-2.03c4.9-0.24,9.83-0.4,14.8-0.52
				C443.43,87.25,443.43,87.09,443.11,87.09L443.11,87.09z"/>
		</g>
		<g id="XMLID_135_">
			<path id="XMLID_136_" class="st2" d="M457.52,93.02c-17.95,0.2-35.82,1.07-53.17,2.47c-8.6,0.68-17.23,1.47-25.59,2.39
				c-8.91,0.96-17.03,2.31-24.91,3.82c-15.04,2.91-29.97,6.37-41.71,10.39c-3.58,1.23-6.01,2.67-4.78,4.34
				c0.99,1.31,4.42,2.35,8.2,3.06c7.52,1.43,16.95,1.79,25.63,2.15c9.15,0.36,18.31,0.6,27.54,0.68c9.31,0.08,18.59,0.44,27.94,0.52
				c18.23,0.12,36.49-0.36,54.36-1.39c18.07-1.03,36.1-2.63,53.21-4.66c8.6-0.99,16.99-2.15,25.11-3.46
				c1.83-0.28,3.62-0.64,5.49-0.92c1.95-0.28,4.18-0.36,6.17-0.6c4.93-0.6,8.68-1.55,9.95-3.14c2.43-2.98-6.17-5.41-14.37-6.65
				c-4.58-0.68-9.47-1.19-14.05-1.87c-4.74-0.72-9.55-1.35-14.37-1.99c-9.31-1.23-18.86-2.31-28.46-3.3
				c-9.43-0.99-19.46-1.79-29.53-1.79c-4.7,0-9.19,0.2-13.65,0.64c-0.52,0.04-0.32,0.28,0.24,0.24c19.62-1.19,38.76,1.19,55.96,3.78
				c8.6,1.27,16.99,2.67,25.19,4.18c6.77,1.23,13.89,2.83,18.35,4.78c1.83,0.8,1.59,1.23,0.16,2.11c-1.59,0.96-3.82,1.79-6.92,2.35
				c-7.16,1.35-14.61,2.59-22.21,3.74c-15.36,2.27-31.32,3.94-48.08,5.05c-16.72,1.11-33.75,1.71-50.86,1.79
				c-8.4,0.04-16.79-0.04-25.15-0.24c-8.76-0.2-16.95-0.76-25.35-1.51c-7.96-0.72-15.72-1.59-23.4-2.55
				c-3.66-0.44-7.48-0.68-10.55-1.19c-0.68-0.12-1.39-0.24-1.99-0.36c0.64,0.16-1.39-0.36-0.8-0.24c-0.24-0.08-0.52-0.16-0.24-0.28
				c1.91-0.88,4.7-1.63,7.2-2.35c2.91-0.84,5.89-1.67,8.95-2.51c5.93-1.55,12.18-3.02,18.7-4.34c6.89-1.43,14.21-2.63,21.25-3.94
				c7-1.35,14.05-2.67,21.53-3.78c14.92-2.19,30.68-3.78,47-4.78c4.02-0.24,8.04-0.44,12.06-0.64
				C457.68,93.06,457.68,93.02,457.52,93.02L457.52,93.02z"/>
		</g>
		<g id="XMLID_133_">
			<path id="XMLID_134_" class="st2" d="M465.32,101.85c-11.62-0.84-23.64-0.56-35.22,0.2c-10.75,0.72-21.29,1.63-31.56,2.83
				c-2.07,0.24-4.22,0.64-6.37,0.76c-1.27,0.08-2.79,0.04-4.14,0.2c-1.55,0.2-2.95,0.56-4.22,0.88c-4.14,0.99-7.76,2.19-10.71,3.54
				c-3.22,1.43-5.77,3.22-3.3,4.93c2.55,1.75,9.95,2.47,15.84,2.79c5.81,0.32,11.66,0,17.51,0.16c5.61,0.16,11.54,0.36,17.07,0.04
				c5.89-0.32,11.82-0.56,17.71-0.92c5.85-0.32,11.62-0.76,17.39-1.15c5.93-0.4,11.86-0.99,17.87-1.23
				c5.13-0.2,10.23-0.48,15.32-0.68c5.25-0.2,10.86-0.68,15.28-1.55c4.5-0.88,10.19-2.31,11.7-3.9c2.07-2.19-5.89-3.82-11.46-4.82
				c-5.33-0.96-11.3-1.51-17.43-1.83c-11.94-0.64-23.84-0.92-35.9-0.36c-0.6,0.04-0.44,0.32,0.12,0.32
				c9.75-0.12,19.06,0.36,28.06,1.47c4.02,0.52,7.76,1.31,11.14,2.11c3.7,0.84,7.6,1.63,11.22,2.55c1.47,0.36,2.15,0.88,1.71-0.04
				c-0.44-0.84-0.32-0.52-1.43-0.16c-1.23,0.44-2.67,0.8-4.18,1.15c-3.58,0.8-7.32,1.47-10.94,2.27
				c-7.76,1.63-17.27,2.55-26.39,3.26c-9.99,0.8-20.02,1.35-30.37,1.63c-5.21,0.12-10.19-0.08-15.4-0.08c-4.9,0-9.87,0-14.57-0.44
				c-2.39-0.2-4.26-0.6-6.41-0.96c-2.23-0.36-4.74-0.68-7.08-0.99c-0.99-0.12-1.99-0.24-2.98-0.36c-0.2-0.04-1.47-0.2-1.47-0.2
				c0.08-0.04,0.64,0.44,0.4,0.16c0.32,0.36,0.28,0.2,0.52,0c0.32-0.24,0.6-0.44,1.07-0.68c2.03-1.03,4.66-1.95,7.64-2.79
				c1.63-0.44,3.9-0.84,5.05-1.39c0.48-0.24,0.92-0.72,1.15-0.84c0.2-0.08,1.55-0.4,2.19-0.56c7.92-1.91,18.15-3.26,27.9-4.18
				c12.14-1.11,24.87-1.75,37.53-1.07C465.48,102.01,465.64,101.89,465.32,101.85L465.32,101.85z"/>
		</g>
		<g id="XMLID_131_">
			<path id="XMLID_132_" class="st2" d="M464.4,106.91c-4.42-0.56-8.99-0.92-13.69-1.23c-4.86-0.32-9.87-0.64-14.84-0.64
				c-5.57,0.04-11.06,0.76-15.88,1.51c-5.25,0.84-11.46,2.31-8.2,4.26c1.51,0.92,4.14,1.35,7.6,1.39c2.27,0.04,4.38-0.2,6.69-0.2
				c5.17,0,10.27,0.08,15.44,0c5.01-0.08,10.11-0.32,14.88-0.8c4.93-0.48,9.43-1.23,14.21-1.75c1.51-0.16,2.03-0.56,1.39-0.99
				c-1.55-1.03-5.37-1.83-8.87-2.31c-3.02-0.4-7.28-0.88-10.59-0.6c-0.52,0.04-0.84,0.28-0.36,0.4c2.47,0.64,5.89,0.88,8.56,1.47
				c2.79,0.64,5.17,1.39,8.12,1.95c-0.16-0.36-0.32-0.72-0.48-1.07c-6.05,1.47-15.88,2.03-23.48,2.27
				c-3.94,0.12-7.84,0.12-11.74-0.04c-3.82-0.16-7-0.48-9.47-1.35c0.52,0.28,1.03,0.52,1.55,0.8c-0.16-0.08-0.28-0.2-0.36-0.32
				c-0.04,0.24-0.04,0.24,0.08-0.08c-0.32,0.36-0.64,0.68-0.96,1.03c0.8-0.48,5.93-1.11,8.12-1.39c3.34-0.44,6.49-0.84,9.71-1.35
				c7.16-1.07,14.45-1.27,22.37-0.92C464.48,107.1,464.8,106.95,464.4,106.91L464.4,106.91z"/>
		</g>
		<g id="XMLID_129_">
			<path id="XMLID_130_" class="st2" d="M423.85,72.8c-29.53,0.2-59.26,0.56-88.27,2.31c-14.53,0.88-28.93,2.11-42.5,3.9
				c-13.33,1.71-25.55,4.14-36.65,6.89c-22.25,5.49-38.05,12.62-52.45,19.9c-3.18,1.63-6.49,3.22-10.11,4.78
				c-3.46,1.47-7.52,2.79-11.7,4.1c-10.35,3.26-25.47,3.62-39.68,4.18c-38.44,1.51-77.33,1.95-115.73,3.5
				c-0.6,0.04-0.44,0.32,0.12,0.32c34.66-0.2,69.29-1.15,103.91-1.71c15.92-0.28,32.59,0.28,47.6-1.63
				c5.97-0.76,11.94-1.79,16.6-3.14c4.66-1.35,8.68-2.91,12.38-4.46c7.52-3.22,13.37-6.73,20.54-9.99c7.68-3.5,16.2-6.89,25.95-9.95
				c9.79-3.06,20.38-5.89,32.48-8.12c12.18-2.27,25.07-4.14,38.68-5.53c31.8-3.22,65.51-4.26,98.82-5.13
				C424.25,72.96,424.25,72.8,423.85,72.8L423.85,72.8z"/>
		</g>
		<g id="XMLID_127_">
			<path id="XMLID_128_" class="st2" d="M46.69,113.83c26.9,1.35,55.88,1.99,82.66,0.16c12.85-0.88,25.19-2.39,36.06-4.58
				c5.61-1.15,11.1-2.35,16.04-3.74c5.37-1.55,9.91-3.26,14.45-5.01c9.19-3.54,17.63-7.24,27.94-10.55
				c9.43-2.98,19.78-5.77,30.84-8.24c22.05-4.93,47.64-8.76,73.94-11.26c58.7-5.61,123.41-3.78,179.93,3.02
				c29.93,3.62,57.07,8.56,83.62,13.93c13.29,2.71,26.62,5.41,41.19,7.52c14.92,2.15,30.45,3.46,46.88,4.14
				c34.27,1.39,69.33,0.99,103.83,0.68c35.86-0.32,71.64-1.11,107.33-1.99c8.4-0.2,16.72-0.44,25.03-0.8
				c0.64-0.04,0.48-0.32-0.16-0.32c-18.03,0.12-36.06,0.64-54.05,0.96c-17.75,0.32-35.5,0.6-53.25,0.8
				c-35.18,0.36-70.52,0.32-105.54-0.84c-16.72-0.56-33.11-1.63-48.95-3.26c-15.32-1.59-29.45-4.1-43.14-6.61
				c-13.45-2.47-26.66-5.05-40.59-7.28c-13.81-2.23-28.06-4.26-42.66-6.01c-29.01-3.54-59.82-6.25-90.94-7.6
				c-29.09-1.23-58.62-1.59-87.67-0.12c-27.34,1.39-55,3.82-78.96,7.96c-24.08,4.18-44.93,9.59-60.61,16.4
				c-8.68,3.78-15.64,7.88-25.67,11.38c-9.51,3.3-20.81,5.77-34.66,7.28c-12.78,1.39-25.87,2.03-39.28,2.67
				c-14.09,0.68-28.46,0.92-42.7,1.03c-6.92,0.04-13.81,0.12-20.73,0.2C46.49,113.71,46.41,113.83,46.69,113.83L46.69,113.83z"/>
		</g>
		<g id="XMLID_125_">
			<path id="XMLID_126_" class="st2" d="M420.23,73.2c36.42-0.96,72.87,1.91,105.42,6.57c16.6,2.39,32.24,5.25,47.08,8.44
				c7.36,1.59,14.57,3.26,21.65,4.93c7.2,1.71,13.97,3.58,21.01,5.33c13.93,3.5,27.46,7.16,41.71,10.55
				c7.32,1.75,15.08,3.38,24.32,4.14c8.87,0.72,18.35,0.68,27.46,0.68c20.18-0.04,40.28-0.4,60.37-0.84
				c19.9-0.44,39.84-0.88,59.74-1.43c39.48-1.03,78.84-2.51,118-4.34c4.97-0.24,9.91-0.48,14.84-0.72c0.4,0,0.32-0.24-0.08-0.2
				c-39.48,1.47-79.12,2.51-118.88,3.18c-19.86,0.32-39.8,0.64-59.7,0.64c-19.94,0-39.88-0.24-59.82-0.24
				c-9.59,0-19.3,0.08-28.85-0.16c-8.48-0.2-16.08-1.03-23.12-2.43c-7.4-1.47-14.17-3.22-21.13-4.86
				c-7.16-1.67-14.45-3.3-21.69-4.93c-14.61-3.3-29.57-6.49-44.93-9.51c-15.16-2.98-30.88-5.77-47.24-8.12
				c-31.8-4.62-66.9-7.64-102.64-7.16c-4.54,0.08-9.03,0.2-13.53,0.36C419.99,73.08,419.99,73.2,420.23,73.2L420.23,73.2z"/>
		</g>
		<g id="XMLID_123_">
			<path id="XMLID_124_" class="st2" d="M57.07,108.78c26.82,1.43,55.12-0.36,79.75-3.54c6.37-0.84,12.85-1.59,18.71-2.71
				c5.77-1.11,11.3-2.35,16.52-3.66c10.94-2.79,19.46-6.25,27.78-9.71c8.28-3.46,16.91-6.89,27.34-9.83
				c11.14-3.14,24.52-5.13,38.4-7c30.76-4.18,64.35-6.96,97.82-8.52c33.07-1.55,66.86-2.07,100.17-0.88
				c31.2,1.11,62.68,4.22,89.98,8.76c26.74,4.46,49.15,10.79,75.74,15.28c26.94,4.58,57.67,6.01,88.39,6.37
				c31.76,0.36,63.72-0.28,95.48-0.52c35.5-0.28,71.56-0.48,106.74-1.95c8.6-0.36,17.19-0.76,25.75-1.11
				c1.91-0.08,1.39-0.96-0.44-0.96c-17.91-0.16-35.74-0.36-53.69-0.2c-17.63,0.16-35.22,0.2-52.85,0.36
				c-32.79,0.28-65.63,0.6-98.42,0.68c-30.64,0.08-62.12-0.28-90.86-3.74c-28.06-3.38-50.9-9.43-76.49-14.01
				c-26.55-4.78-56.51-7.76-87.16-9.23c-31.76-1.55-63.96-1.83-95.99-0.88c-33.67,0.99-67.06,3.1-99.69,5.69
				c-15.68,1.23-31.08,2.11-45.77,4.26c-13.21,1.95-24.36,4.82-33.87,8.12c-18.47,6.37-32.63,13.81-54.84,19.22
				c-11.1,2.71-22.84,5.13-36.38,6.69c-13.17,1.51-27.18,2.47-41.31,2.79C71,108.7,64,108.74,57.11,108.7
				C56.76,108.54,56.64,108.74,57.07,108.78L57.07,108.78z"/>
		</g>
		<g id="XMLID_121_">
			<path id="XMLID_122_" class="st2" d="M50.31,129.35c35.34-0.68,70.68-1.43,106.06-2.07c16.72-0.32,33.79-0.72,50.11,0.68
				c12.81,1.11,24.75,3.14,35.1,5.57c21.61,5.09,42.03,10.63,68.65,13.37c7.68,0.8,15.56,1.39,23.68,1.63
				c7.8,0.24,15.68,0.16,23.52,0.24c16.52,0.2,33.11,0,49.63-0.12c34.74-0.28,69.29-0.16,103.95-1.07
				c30.88-0.84,61.25-2.67,90.58-5.65c28.97-2.87,54.4-7.48,76.85-13.57c10.79-2.95,21.65-5.93,35.94-7.28
				c7.72-0.72,15.84-1.39,23.92-1.59c7.92-0.2,15.92-0.28,23.88-0.24c35.26,0.16,70.52,0.32,105.78-0.04
				c35.58-0.36,71.08-1.15,106.46-2.39c8.24-0.28,16.32-0.64,24.44-1.11c1.07-0.08,0.84-0.6-0.28-0.56
				c-17.71,0.28-35.34,1.03-53.05,1.47c-17.39,0.44-34.86,0.8-52.29,1.03c-35.14,0.52-70.64,0.76-105.78,0.24
				c-16.95-0.28-33.87-0.96-50.82-1.11c-7.88-0.08-15.6-0.2-23.32,0.36c-7.56,0.56-14.77,1.55-21.25,2.83
				c-12.34,2.39-22.57,5.61-33.75,8.4c-11.46,2.91-24.04,5.29-37.13,7.52c-26.51,4.46-54.84,7.32-84.77,9.07
				c-34.43,1.99-69.37,2.43-104.39,2.47c-17.19,0-34.35-0.28-51.54-0.56c-7.96-0.12-15.92-0.28-23.84-0.56
				c-8-0.28-15.68-0.92-23.4-1.55c-7.84-0.64-15.68-1.15-23.28-2.03c-6.41-0.76-12.5-1.71-18.39-2.79
				c-11.62-2.07-22.01-4.66-33.31-6.89c-10.86-2.11-22.17-4.18-34.19-5.69c-13.85-1.71-28.38-2.23-43.3-2.03
				c-17.15,0.24-34.27,0.99-51.34,1.51c-17.67,0.56-35.34,1.07-53.01,1.63c-8.68,0.28-17.35,0.52-26.03,0.8
				C50.11,129.27,50.11,129.35,50.31,129.35L50.31,129.35z"/>
		</g>
		<g id="XMLID_119_">
			<path id="XMLID_120_" class="st2" d="M43.66,136.24c60.81-1.55,127.95-2.71,181.88,7.24c13.77,2.55,26.9,5.33,41.79,7.32
				c14.17,1.87,29.37,2.95,44.77,3.5c32,1.19,63.99,0.99,96.19,0.84c36.14-0.16,72.23-0.76,108.21-1.71
				c33.63-0.92,67.97-1.67,100.97-3.9c15.6-1.03,31.12-2.47,45.61-4.46c14.88-2.07,28.65-4.78,42.54-7.32
				c13.53-2.51,27.78-4.74,42.94-6.25c14.88-1.51,30.37-2.43,45.97-2.98c15.88-0.56,31.72-0.6,47.64-0.8
				c16.72-0.2,33.31-0.28,50.07-0.24c35.5,0.16,71,0.96,106.46-0.12c8.32-0.24,16.48-0.64,24.6-1.19c0.72-0.04,0.56-0.4-0.16-0.4
				c-35.46,1.27-70.52,1.15-106.1,0.44c-33.59-0.68-66.7-2.43-100.45-1.95c-31.48,0.44-62.64,2.31-91.54,6.01
				c-30.13,3.9-53.33,11.14-83.58,15c-15.2,1.95-31.6,3.06-47.84,3.94c-17.23,0.96-34.66,1.67-52.06,2.27
				c-35.9,1.19-71.95,1.99-108.09,2.39c-33.39,0.36-67.34,0.56-100.41-0.99c-31.44-1.51-60.93-5.21-87.44-10.31
				c-13.45-2.59-26.86-5.05-41.95-6.81c-14.13-1.63-29.41-2.67-44.53-2.95c-7.68-0.16-15.4-0.28-23.12-0.28
				c-7.96,0-15.56,0.2-23.48,0.44c-15.4,0.44-30.68,1.03-45.89,1.79c-7.68,0.4-15.36,0.8-23,1.19
				C43.18,136.04,43.26,136.24,43.66,136.24L43.66,136.24z"/>
		</g>
		<g id="XMLID_117_">
			<path id="XMLID_118_" class="st2" d="M482.59,160.75c-18.07-0.44-36.18-0.68-54.24-0.99c-17.87-0.28-35.74-0.68-53.65-1.03
				c-32.67-0.64-65.83-1.15-97.54-3.74c-15.92-1.31-30.84-3.26-45.53-5.49c-15.04-2.27-30.01-4.58-46.13-6.21
				c-31.36-3.1-65.19-4.02-98.1-3.46c-19.7,0.32-39.64,0.99-58.74,2.47c-19.06,1.47-37.77,3.26-56.51,5.05
				c-1.11,0.12-0.64,0.56,0.48,0.52c17.27-0.84,34.54-1.55,51.94-2.15c17.23-0.6,34.43-1.31,51.7-1.75
				c32.67-0.76,65.94-0.32,97.5,2.39c32.2,2.79,59.78,8.68,91.69,11.62c31.6,2.91,65.47,3.62,98.42,3.5
				c19.34-0.08,38.68-0.28,58.03-0.36c20.22-0.04,40.43-0.08,60.69-0.28C482.83,160.83,482.83,160.75,482.59,160.75L482.59,160.75z"
				/>
		</g>
		<g id="XMLID_115_">
			<path id="XMLID_116_" class="st2" d="M1.87,152.63c5.01-0.2,10.03-0.32,14.96-0.6c5.05-0.28,10.15-0.56,15.24-0.84
				c10.55-0.56,21.13-1.03,31.76-1.39c20.66-0.72,41.35-0.96,62.12-0.44c17.75,0.44,35.34,1.51,52.21,3.14
				c16.48,1.59,32.36,3.5,47.04,6.25c7.12,1.31,13.85,2.83,20.14,4.5c5.85,1.55,12.5,3.3,15.48,5.49c2.71,1.99,1.43,4.06-2.23,5.93
				c-4.1,2.11-10.51,3.54-17.75,4.66c-8.04,1.19-16.87,1.87-25.59,2.55c-9.71,0.76-19.46,1.39-29.29,1.99
				c-19.78,1.15-39.76,1.99-59.86,2.47c-40.43,0.96-81.07,0.76-121.54,0.12c-4.93-0.08-9.91-0.16-14.84-0.28
				c-1.15-0.04-1.31,0.48-0.28,0.56c20.58,1.71,41.35,2.98,62.68,3.5c21.05,0.52,42.31,0.72,63.4,0.32
				c21.53-0.36,43.02-1.11,64.23-2.23c10.43-0.56,20.77-1.19,31.04-1.91c9.59-0.68,19.3-1.35,28.5-2.43
				c18.15-2.19,34.46-6.09,36.77-12.1c2.19-5.69-14.09-10.19-28.02-13.37c-14.88-3.42-31.4-6.05-49.07-8
				c-17.23-1.91-35.58-2.83-53.93-3.22c-42.94-0.88-86.08,0.99-127.91,3.74c-5.21,0.36-10.27,0.88-15.36,1.35
				C1.44,152.47,1.48,152.63,1.87,152.63L1.87,152.63z"/>
		</g>
		<g id="XMLID_113_">
			<path id="XMLID_114_" class="st2" d="M16.2,156.33c17.15-0.16,34.23-0.64,51.34-0.99c8.76-0.2,17.47-0.32,26.23-0.32
				c4.18,0,8.4,0.04,12.58,0.08c3.94,0.04,7.64,0.36,11.54,0.48c26.55,0.88,55.2,2.63,76.17,7.8c5.09,1.23,9.31,2.55,12.3,4.3
				c2.35,1.35,3.54,2.83,1.79,4.1c0.4-0.28-0.68,0.36-0.64,0.32c-1.11,0.56,0.24-0.04-0.56,0.24c-0.88,0.32-1.71,0.52-2.87,0.72
				c-2.63,0.48-5.53,0.68-8.64,0.88c-7.68,0.44-15.56,0.68-23.32,0.92c-17.23,0.6-34.39,1.31-51.66,1.83s-34.5,0.84-51.82,0.96
				c-38.8,0.24-77.45-0.36-116.13-1.19c-0.72,0-0.92,0.36-0.16,0.4c35.74,1.75,72.03,2.51,108.25,2.79
				c18.43,0.12,36.89,0.16,55.32,0.08c17.99-0.08,36.1-0.16,53.97-0.72c9.03-0.28,18.11-0.6,27.06-1.03
				c7.08-0.36,14.57-1.03,19.58-2.67c10.79-3.46,5.97-8.48-2.79-11.86c-8.91-3.42-22.25-5.97-35.58-7.72
				c-13.85-1.79-29.13-2.98-44.26-3.22c-4.38-0.08-8.8-0.12-13.17-0.08c-1.87,0-3.78,0-5.65,0.04c-2.55,0.08-5.01,0.32-7.6,0.36
				c-9.95,0.2-19.78,0.64-29.69,0.99c-20.54,0.72-40.99,1.71-61.61,2.23C15.8,156.18,15.76,156.37,16.2,156.33L16.2,156.33z"/>
		</g>
		<g id="XMLID_111_">
			<path id="XMLID_112_" class="st2" d="M21.97,163.46c17.99,0.16,36.1-0.56,54.09-0.16c7.56,0.16,15.4,0.52,22.72,1.07
				c7.04,0.56,14.33,1.11,21.05,1.95c3.06,0.4,6.05,0.88,8.84,1.39c0.36,0.08,3.42,0.84,3.66,0.8c-1.83,0.16-0.4-1.27-0.28-1.19
				c0.48-0.08,0.32-0.04-0.4,0.08c-0.44,0.08-0.92,0.16-1.39,0.24c-0.52,0.08-3.46,0.28-4.78,0.4c-2.15,0.16-4.26,0.36-6.41,0.52
				c-4.66,0.36-9.31,0.68-13.97,0.99c-17.39,1.19-35.18,2.07-53.01,2.47c-20.1,0.44-40.51,0.48-60.61-0.04
				c-1.31-0.04-1.55,0.6-0.32,0.68c19.3,1.31,38.88,2.07,58.7,2.19c20.14,0.12,40.16-0.4,59.94-1.47c4.9-0.28,9.75-0.6,14.57-0.99
				c4.54-0.36,9.43-0.64,13.61-1.31c4.06-0.64,7.52-1.83,7.36-3.22c-0.2-1.67-4.66-2.59-8.87-3.42c-7-1.39-15.12-2.39-23.44-2.83
				c-8.56-0.48-17.35-0.36-25.95-0.04c-9.71,0.36-19.5,0.64-29.29,0.88c-11.94,0.32-23.92,0.44-35.78,0.92
				C21.61,163.3,21.57,163.46,21.97,163.46L21.97,163.46z"/>
		</g>
		<g id="XMLID_109_">
			<path id="XMLID_110_" class="st2" d="M449.32,159.76c34.35,0.92,68.81,1.75,103.32,1.75c33.83,0,67.58-0.99,99.85-4.14
				c15.44-1.51,30.33-3.46,44.73-5.65c13.85-2.11,27.14-4.58,40.59-6.89c26.78-4.66,55.24-9.23,86.32-10.71
				c20.54-0.99,41.55-1.03,62.2-1.63c21.05-0.64,42.11-1.23,63.08-1.99c1.11-0.04,1.19-0.52,0-0.52
				c-19.1-0.04-38.17,0.04-57.27,0.12c-18.51,0.08-37.21,0.16-55.64,0.72c-16.52,0.52-32.71,1.55-48.35,3.22
				c-14.65,1.59-28.65,3.58-42.27,5.81c-13.69,2.23-27.1,4.58-40.83,6.77c-13.65,2.19-27.26,4.42-41.75,6.09
				c-15.8,1.83-32.16,3.18-48.79,4.18c-16.64,0.99-33.31,1.83-50.22,2.27c-38.29,1.03-76.61,0.76-114.98,0.36
				C448.8,159.52,448.84,159.72,449.32,159.76L449.32,159.76z"/>
		</g>
		<g id="XMLID_107_">
			<path id="XMLID_108_" class="st2" d="M40.96,194.62c31.28,0.96,63.16,1.23,94.6,1.07c30.92-0.16,62.36-0.64,92.45-2.95
				c15-1.15,29.65-2.67,43.78-4.54c14.8-1.95,28.38-4.46,41.83-7.12c13.97-2.75,28.14-5.37,44.45-6.73
				c16.79-1.39,34.27-1.91,51.62-2.39c18.23-0.48,36.45-0.92,54.72-1.19c18.63-0.28,37.17-0.32,55.84-0.32
				c35.18-0.04,70.48-0.04,105.58-0.88c32.83-0.76,66.14-2.47,97.23-5.73c32.2-3.38,60.33-8.72,89.39-13.85
				c14.21-2.51,28.81-4.9,44.33-6.61c15.52-1.75,31.68-2.98,48-3.9c32.67-1.79,66.54-2.39,99.69-2.87
				c8.28-0.12,16.52-0.24,24.79-0.32c2.11-0.04,2.07-0.92,0-0.96c-33.23-0.76-66.86-1.67-100.17-0.72
				c-33.07,0.96-65.39,3.1-95.4,7.36c-30.56,4.34-57.67,10.51-88.23,14.88c-29.77,4.26-62.24,6.96-94.8,8.64
				c-70.48,3.62-142.44,2.98-213.67,2.83c-33.95-0.08-70.8,0.52-102.28,4.62c-15.64,2.03-29.13,5.13-43.58,7.76
				c-13.21,2.39-27.26,4.42-41.79,6.01c-14.25,1.55-28.97,2.79-43.82,3.74c-15.36,0.99-30.96,1.99-46.64,2.47
				c-31.44,0.96-63.08,1.11-94.68,1.03c-7.76,0-15.52,0-23.28,0.04C39.72,194.06,39.76,194.58,40.96,194.62L40.96,194.62z"/>
		</g>
		<g id="XMLID_105_">
			<path id="XMLID_106_" class="st2" d="M33.16,198.56c33.79,1.39,67.58,2.63,101.68,3.02c33.79,0.4,68.53,0.28,101.92-1.43
				c16.87-0.88,33.71-2.11,50.03-3.62c16.32-1.51,32-3.58,47.72-5.53c15.84-1.99,31.72-3.94,48.23-5.37
				c15.16-1.31,30.72-2.27,46.36-2.98c64.11-2.87,129.22-1.75,193.78-2.87c31.76-0.56,63.56-1.75,94.2-4.34
				c32.08-2.71,61.13-7.24,89.94-12.1c14.53-2.47,29.01-4.93,44.1-7.08c15.36-2.19,31.4-3.98,47.68-5.45
				c32.4-2.98,66.22-4.38,100.13-4.3c8.28,0.04,16.6,0.12,24.83,0.32c0.6,0,0.72-0.28,0.12-0.32c-65.87-3.1-133.52,0.2-192.94,8.95
				c-30.17,4.46-58.46,10.07-89.9,13.77c-29.61,3.46-61.09,5.33-92.73,6.29c-64.47,1.95-129.42,0.64-193.93,2.39
				c-32,0.88-63.88,2.71-94.04,5.97c-32.44,3.54-62.92,8.64-96.39,11.34c-32.99,2.67-67.54,3.9-101.68,4.18
				c-34.54,0.28-69.01-0.4-103.51-0.8c-8.52-0.12-16.99-0.24-25.51-0.36C32.72,198.24,32.56,198.52,33.16,198.56L33.16,198.56z"/>
		</g>
		<g id="XMLID_102_">
			<path id="XMLID_104_" class="st2" d="M998.65,155.98c-16.36-0.44-32.71-0.84-49.15-0.88c-16.4-0.04-32.51-0.08-48.59,0.99
				c-15.84,1.03-30.13,3.06-43.34,5.81c-13.33,2.75-25.43,5.97-38.6,8.8c-13.33,2.83-27.7,4.97-43.54,6.37
				c-16,1.39-32.55,2.07-49.07,2.71c-37.09,1.43-74.02,3.18-111.31,4.14c-37.81,0.96-75.54,1.39-113.46,1.23
				c-18.03-0.08-36.02-0.48-54.05-0.44c-17.55,0.04-35.1,1.11-51.7,2.75c-32.24,3.18-60.89,8.87-91.73,13.01
				c-30.41,4.06-62.28,6.89-94.8,9.03c-66.42,4.38-134.48,5.45-202.33,4.26c-8.36-0.16-16.72-0.32-25.03-0.52
				c-0.96-0.04-1.19,0.44-0.24,0.48c66.38,2.67,134.6,3.74,201.26,1.11c33.31-1.31,66.1-3.74,97.62-7.16
				c31.92-3.54,61.17-8.52,91.65-12.93c15-2.19,30.52-4.22,46.68-5.53c17.63-1.43,36.34-2.23,54.6-2.51
				c18.63-0.28,37.21-0.08,55.88-0.16c18.82-0.08,37.65-0.28,56.43-0.56c37.89-0.48,75.74-1.23,113.66-1.75
				c33.75-0.48,68.21-1.39,99.42-5.49c30.01-3.94,51.22-11.58,79.75-16.2c29.29-4.7,62.48-6.25,95.44-6.33
				c8.16-0.04,16.36,0,24.52,0.04C999.29,156.29,999.29,156.02,998.65,155.98L998.65,155.98z"/>
		</g>
		<g id="XMLID_100_">
			<path id="XMLID_101_" class="st2" d="M-3.5,222.96c38.05,0.72,76.05,1.31,114.18,1.47c37.25,0.16,75.62-0.16,112.31-2.19
				c36.3-2.03,70.76-5.65,104.31-10.15c32.16-4.34,63.2-9.39,95.75-13.45c32.44-4.06,66.1-6.85,101.37-7.6
				c35.3-0.76,70.72,0,105.94,0.72c68.57,1.39,140.8,2.75,203.05-7.4c16.24-2.67,31.4-5.81,47.32-8.6
				c15.56-2.75,31.88-4.93,49.35-6.41c35.14-2.95,72.19-3.14,108.49-2.83c9.15,0.08,18.31,0.2,27.42,0.32c0.99,0,0.96-0.44,0-0.44
				c-36.1-1.07-72.55-2.15-108.81-1.11c-17.71,0.52-35.26,1.47-52.1,3.18c-17.07,1.75-32.75,4.38-48,7.16
				c-15.56,2.87-31,5.81-47.96,7.92c-15.8,1.95-32.48,3.3-49.39,4.14c-34.15,1.67-69.17,1.31-103.55,0.72
				c-35.38-0.64-70.72-1.63-106.18-1.51c-35.18,0.12-69.77,1.55-103.12,4.93c-67.42,6.77-126.88,19.06-195.53,24.91
				c-73.79,6.29-149.88,6.88-226.13,6.33c-9.55-0.08-19.14-0.16-28.69-0.24C-4.06,222.72-4.02,222.96-3.5,222.96L-3.5,222.96z"/>
		</g>
		<g id="XMLID_98_">
			<path id="XMLID_99_" class="st2" d="M1008.08,177.15c-33.59,0.28-67.06,0.8-100.25,2.47c-16.28,0.84-32.79,2.15-47.88,4.18
				c-14.84,1.99-29.09,4.34-43.54,6.57c-14.13,2.15-28.46,4.26-43.62,5.69c-15.8,1.51-32.24,2.35-48.79,2.63
				c-33.43,0.56-66.82-0.76-100.01-1.79c-33.55-1.07-67.22-1.79-100.81-0.4c-34.5,1.39-67.62,4.82-100.01,8.44
				c-63.28,7.12-125.12,15.32-191.67,19.5c-69.96,4.42-143.51,4.78-214.55,2.83c-8.8-0.24-17.55-0.52-26.31-0.84
				c-0.72-0.04-0.88,0.32-0.16,0.36c70.32,3.58,142.04,4.93,212.96,2.23c68.17-2.59,131.69-9.95,195.41-17.19
				c31.92-3.58,64.03-7.28,97.31-9.71c33.67-2.43,67.42-2.75,101.88-1.91c33.51,0.8,66.82,2.39,100.49,2.67
				c33.47,0.24,66.1-1.11,96.99-5.01c29.61-3.74,56.67-9.03,86-12.97c32.08-4.3,66.46-5.89,101.33-6.88
				c8.4-0.24,16.83-0.44,25.23-0.64C1008.52,177.35,1008.52,177.15,1008.08,177.15L1008.08,177.15z"/>
		</g>
		<g id="XMLID_95_">
			<path id="XMLID_96_" class="st2" d="M410.96,215.16c20.97-1.79,42.31-3.3,63.76-4.58c21.33-1.23,42.82-1.99,64.51-2.43
				c21.77-0.4,43.7-0.56,65.55-0.32c22.41,0.2,44.69,0.88,66.98,1.59c43.18,1.43,87.16,2.75,130.26,0.36
				c20.54-1.11,40.16-3.22,58.3-6.25c8.99-1.51,17.71-3.14,27.06-4.46c9.19-1.27,19.14-2.07,29.13-2.59
				c20.97-1.07,42.66-0.88,63.84-0.68c11.42,0.08,22.84,0.24,34.31,0.32c11.38,0.08,22.84,0.32,34.23,0.2
				c5.85-0.04,11.58,0,17.39-0.12c2.23-0.04,2.83-0.96,0.56-1.19c-10.98-0.99-22.53-1.51-33.91-1.95
				c-11.38-0.48-22.96-0.84-34.43-1.03c-21.93-0.36-44.26-0.68-66.18-0.2c-21.73,0.48-42.15,2.03-61.25,5.13
				c-9.19,1.51-18.07,3.18-27.5,4.58c-9.07,1.31-18.63,2.35-28.38,3.14c-41.47,3.38-85.13,2.43-127.39,1.11
				c-22.72-0.72-45.41-1.47-68.25-1.75c-10.94-0.16-22.17-0.28-33.11-0.12c-10.86,0.2-21.85,0.16-32.63,0.56
				c-43.3,1.63-86.92,3.9-127.79,8.44c-5.17,0.56-10.35,1.19-15.48,1.79C409.64,214.84,409.96,215.24,410.96,215.16L410.96,215.16z"
				/>
		</g>
		<g id="XMLID_93_">
			<path id="XMLID_94_" class="st2" d="M743.55,214.92c-19.14-0.48-38.37-0.8-57.55-0.92s-38.37,0.04-57.59,0.04
				c-9.59,0-19.14,0.04-28.73,0.12c-9.55,0.08-19.14,0.12-28.61,0.48c-16.4,0.56-32.75,1.23-48.95,2.23
				c-29.61,1.83-58.98,4.86-83.1,10.35c-5.77,1.31-11.18,2.75-16.08,4.38c-5.65,1.87-11.46,3.94-12.38,6.49
				c-0.96,2.75,5.29,4.78,13.13,5.97c7.88,1.19,16.36,2.11,24.79,2.87c34.7,3.06,71.87,3.14,107.81,3.38
				c9.71,0.08,19.58-0.2,29.33-0.32c9.79-0.12,19.54-0.32,29.33-0.4c19.54-0.16,39.08-0.4,58.62-0.64
				c35.34-0.44,71.04-0.99,105.82-3.02c16.95-0.99,33.91-2.23,49.99-4.1c7.48-0.88,14.88-1.63,21.53-2.98
				c6.53-1.35,12.06-3.02,14.77-5.25c5.81-4.82-6.09-9.79-19.82-12.1c-7.44-1.23-15.8-1.99-24.08-2.59
				c-9.11-0.68-18.23-1.27-27.5-1.67c-4.7-0.2-9.27-0.24-13.97-0.28c-4.86-0.04-9.71-0.24-14.57-0.32
				c-9.43-0.2-18.78-0.64-28.18-0.96c-18.78-0.64-37.81-1.19-56.71-1.27c-9.11-0.04-18.23-0.04-27.3,0.04c-0.72,0-0.72,0.32,0,0.32
				c18.23,0.28,36.45,0.72,54.6,1.27c9.23,0.28,18.47,0.6,27.7,0.96c8.99,0.36,18.07,0.72,26.86,1.35
				c4.02,0.32,8.04,0.64,12.06,0.96c4.58,0.36,8.91,0.96,13.45,1.35c8.56,0.76,17.27,1.27,25.95,1.87
				c13.69,0.96,30.13,2.07,37.01,6.13c2.67,1.55,2.83,3.3,0.08,4.78c-2.98,1.59-8.2,2.75-13.49,3.7
				c-6.73,1.19-13.45,2.31-20.62,3.26c-7.56,0.99-15.36,1.83-23.28,2.55c-31.84,2.95-65.55,3.66-98.7,4.06
				c-18.51,0.24-37.01,0.36-55.52,0.36c-18.82,0-37.53-0.16-56.31-0.48c-8.99-0.16-17.99-0.48-26.98-0.56
				c-9.23-0.08-18.47-0.16-27.66-0.24c-16.68-0.2-33.39-0.44-49.87-1.23c-15.92-0.76-31.92-1.95-46.48-3.98
				c-2.47-0.36-5.89-0.76-7.28-1.43c-1.35-0.64-0.56-1.31,0.56-1.99c2.98-1.79,8.48-3.34,13.29-4.7
				c20.06-5.61,46.25-8.76,72.71-10.86c13.97-1.11,28.22-1.95,42.54-2.59c8.84-0.4,17.79-0.64,26.55-1.15
				c8.6-0.52,17.23-0.92,25.91-1.27c9.15-0.4,18.35-0.8,27.54-1.11c9.15-0.32,18.43-0.44,27.62-0.56
				c18.43-0.24,36.85-0.32,55.28-0.24c8.84,0.04,17.63,0.12,26.47,0.24C743.79,215.04,743.79,214.92,743.55,214.92L743.55,214.92z"
				/>
		</g>
		<g id="XMLID_90_">
			<path id="XMLID_92_" class="st2" d="M676.57,220.45c-20.5-0.04-40.99,0.28-61.37,0.92c-10.11,0.32-20.18,0.72-30.25,1.19
				c-10.11,0.48-20.22,0.88-30.33,1.35c-10.23,0.48-20.66,0.84-30.6,1.71c-9.91,0.88-19.74,1.83-29.45,2.87
				c-9.75,1.03-19.42,2.19-28.97,3.38c-4.02,0.52-8,1.19-10.07,2.39c-2.47,1.39-1.27,3.14,2.75,4.18c3.42,0.88,7.76,1.23,12.06,1.51
				c4.9,0.32,9.83,0.64,14.77,0.96c10.23,0.6,20.66,0.84,31.04,0.99c10.15,0.16,20.34,0.32,30.49,0.4
				c10.03,0.08,20.06,0.4,30.09,0.56c20.26,0.28,40.63,0.28,60.93,0.12c10.23-0.08,20.46-0.32,30.68-0.36
				c10.19-0.04,20.38-0.16,30.56-0.32c4.97-0.08,9.95-0.2,14.96-0.24c5.21,0,10.27-0.24,15.44-0.48c10.15-0.44,20.3-0.92,30.37-1.51
				c19.9-1.19,39.52-2.83,58.82-4.66c4.78-0.44,9.55-0.92,14.33-1.43c5.73-0.6,6.57-2.67,1.63-3.66
				c-10.59-2.15-22.21-4.38-34.54-5.53c-6.09-0.56-12.26-1.07-18.39-1.63c-6.17-0.56-12.42-1.03-18.74-1.43
				c-24.83-1.59-50.07-2.55-75.54-2.19c-14.25,0.2-28.65,0.68-42.34,1.91c-0.68,0.04-0.36,0.32,0.28,0.28
				c12.7-0.6,25.35-1.19,38.17-1.39c12.26-0.2,24.56-0.08,36.77,0.28c12.5,0.4,25.55,1.11,37.45,2.31
				c11.58,1.15,23.12,2.43,33.59,4.34c12.1,2.15,24.67,4.1,36.38,6.49c0.56-1.23,1.07-2.43,1.63-3.66
				c-18.35,1.87-36.97,3.5-55.8,4.9c-9.39,0.68-18.86,1.35-28.34,1.99c-4.74,0.32-9.43,0.68-14.17,0.96
				c-4.74,0.28-9.59,0.48-14.29,0.8c-4.7,0.32-9.23,0.8-14.01,1.07c-4.74,0.28-9.43,0.56-14.17,0.8
				c-9.63,0.52-19.46,1.07-29.25,1.27c-19.38,0.4-38.8,0.6-58.22,0.4c-19.66-0.2-39.64-0.48-59.02-1.55
				c-18.98-1.07-37.45-2.79-56.35-3.9c-4.74-0.28-9.51-0.56-14.25-0.92c-1.59-0.12-2.71-0.2-3.62-0.36
				c-0.16-0.04-0.36-0.08-0.4-0.08c0.16,0.16,0.48,0.32,0.56,0.48c0,0-0.28,0.24-0.32,0.24s0.52-0.12,0.68-0.16
				c0.76-0.16,1.63-0.28,2.51-0.4c1.99-0.28,4.06-0.52,6.09-0.76c4.54-0.56,9.07-1.07,13.65-1.59c9.15-1.03,18.39-1.99,27.74-2.91
				c9.35-0.88,18.98-1.71,28.06-2.83c18.11-2.23,37.21-3.5,56.43-4.54c19.66-1.07,39.4-1.79,59.18-2.19
				c4.9-0.12,9.79-0.2,14.69-0.24C676.77,220.53,676.77,220.45,676.57,220.45L676.57,220.45z"/>
		</g>
		<g id="XMLID_88_">
			<path id="XMLID_89_" class="st2" d="M671.31,223.91c-10.79-0.24-21.61-0.24-32.4,0.04c-10.51,0.28-20.73,0.92-31.12,1.35
				c-2.55,0.12-5.09,0.16-7.6,0.28c-2.67,0.12-5.25,0.4-7.88,0.56c-5.65,0.32-10.67,0.92-15.92,1.59
				c-9.95,1.27-19.34,2.83-28.3,4.66c-2.55,0.52-3.98,1.35-3.14,2.27c3.02,3.34,16.4,3.58,26.07,3.5
				c11.94-0.08,23.84-0.08,35.78-0.2c11.7-0.08,23.48-0.16,35.26-0.32c11.74-0.16,23.48-0.44,35.22-0.68
				c11.86-0.24,23.68-0.32,35.46-0.76c6.05-0.24,12.06-0.44,18.07-0.72c5.73-0.28,11.46-0.48,16.79-1.15
				c4.3-0.56,8.52-1.47,10.43-2.75c2.39-1.59,0.44-3.34-4.54-4.26c-4.34-0.84-10.07-0.99-15-1.23c-5.77-0.28-11.5-0.6-17.27-0.92
				c-12.54-0.64-25.35-1.07-38.09-1.27c-12.97-0.16-25.59,0.04-38.37,0.72c-0.64,0.04-0.48,0.36,0.16,0.32
				c10.31-0.16,20.77-0.16,31.08-0.04c10.51,0.12,21.17,0.36,31.44,0.99c10.03,0.64,19.82,1.39,29.13,2.67
				c2.19,0.28,4.38,0.6,6.53,0.92c0.72,0.12,1.39,0.28,2.15,0.36c0.24,0.04,0.99,0.12,0.56,0.08c-0.36-0.04,0.36,0.08,0,0.16
				c0.04,0,0.24-0.24,0.28-0.24c-0.68,0.24,0.16,0.04-0.64,0.28c-0.76,0.2-2.47,0.52-3.54,0.64c-2.07,0.24-4.3,0.36-6.41,0.56
				c-2.47,0.24-4.97,0.48-7.48,0.72c-5.17,0.48-10.35,0.92-15.56,1.35c-5.01,0.4-10.19,0.68-15.12,1.15
				c-5.01,0.48-9.95,0.8-15.12,1.07c-10.75,0.56-21.41,0.96-32.32,1.11c-10.59,0.04-21.37,0.2-31.96,0
				c-11.94-0.24-24-0.6-35.74-1.31c-5.61-0.36-11.1-0.84-16.72-1.11c-2.03-0.12-4.14-0.2-6.05-0.44c-0.08,0-1.15-0.2-1.19-0.2
				c0.48,0.08-0.32-0.08-0.32-0.12c0.28,0.12,0.56,0.36,0.24,0c-1.03,0.76-2.11,1.51-3.14,2.27c8.68-1.71,17.79-3.26,27.14-4.62
				c4.54-0.68,9.07-1.27,13.49-1.99c2.35-0.4,4.78-0.68,7.2-1.03c2.23-0.32,4.34-0.72,6.57-0.99c9.31-1.23,19.78-1.87,29.89-2.35
				c10.59-0.52,21.25-0.76,32-0.8C671.55,224.03,671.55,223.91,671.31,223.91L671.31,223.91z"/>
		</g>
		<g id="XMLID_86_">
			<path id="XMLID_87_" class="st2" d="M492.94,208.83c-16.24-1.03-33.11-0.84-49.23,0.32c-8.56,0.6-16.91,1.43-25.07,2.35
				c-8.24,0.96-16.64,1.87-24.52,3.02c-15.88,2.35-31.4,4.93-47.32,7.28s-32.32,4.38-49.19,6.05c-33.79,3.34-69.25,5.33-104.63,6.53
				c-36.3,1.23-72.75,1.35-109.25,1.27c-36.57-0.08-73.19-0.24-109.72-0.92c-4.42-0.08-8.84-0.16-13.25-0.24
				c-0.84,0-1.07,0.4-0.2,0.44c17.87,0.76,35.78,1.43,53.69,2.15c18.27,0.72,36.61,1.43,55.04,1.75
				c36.34,0.68,72.75,0.56,109.01-0.4c36.02-0.96,71.87-2.79,106.34-6.01c17.15-1.59,34.03-3.42,50.5-5.57s32.08-4.78,47.8-7.36
				c30.21-4.93,61.53-10.59,97.31-10.67c4.22,0,8.4,0.08,12.58,0.2C493.26,209.07,493.34,208.87,492.94,208.83L492.94,208.83z"/>
		</g>
		<g id="XMLID_83_">
			<path id="XMLID_84_" class="st2" d="M528.44,212.13c-19.02-1.19-38.37-0.24-56.79,1.35c-4.78,0.4-9.47,0.88-14.25,1.23
				c-4.7,0.36-9.19,0.88-13.85,1.31c-9.19,0.8-18.07,1.87-26.94,2.98c-35.82,4.42-71.48,8.99-107.49,13.33
				c-35.66,4.26-71.95,8.2-109.44,10.86c-39.52,2.83-79.95,3.98-120.55,4.14c-20.58,0.08-41.15-0.08-61.69-0.32
				c-20.77-0.28-41.47-0.64-62.24-0.28c-5.13,0.08-10.27,0.12-15.36,0.2c-2.15,0.04-2.83,0.99-0.52,1.15
				c9.95,0.56,19.86,1.19,29.85,1.67c10.51,0.48,21.13,0.8,31.72,0.99c20.54,0.44,41.11,0.68,61.73,0.72
				c41.23,0.08,82.62-0.72,123.13-3.14c37.73-2.27,74.54-5.81,110.24-10.03c36.14-4.26,71.72-8.95,106.74-13.97
				c8.68-1.23,17.59-2.31,26.43-3.46c4.38-0.56,8.8-1.15,13.09-1.75c2.07-0.28,3.98-0.68,6.05-0.96c2.27-0.32,4.58-0.56,6.81-0.92
				c17.67-2.75,37.53-4.86,57.71-5.09c5.17-0.08,10.35,0,15.52,0.24C528.68,212.33,528.88,212.17,528.44,212.13L528.44,212.13z"/>
		</g>
		<g id="XMLID_81_">
			<path id="XMLID_82_" class="st2" d="M698.89,253.88c-51.62,1.15-103.67,2.31-155.45,1.55c-25.35-0.36-50.3-1.27-74.94-3.14
				c-23.88-1.79-47.16-4.22-70.76-6.25c-23.28-2.03-47.12-3.74-71.48-4.02c-25.55-0.32-49.67,1.43-73.79,3.7
				c-48.67,4.62-98.06,8.36-148.72,10.51c-50.98,2.19-102.72,2.94-154.18,2.27c-6.29-0.08-12.58-0.2-18.82-0.32
				c-0.88,0-0.88,0.4,0,0.4c51.1,1.47,102.64,1.59,153.78,0.28c50.94-1.27,101.88-3.82,151.07-7.92
				c24.24-2.03,48.35-4.66,73.71-5.05c24-0.4,47.76,0.92,70.84,2.75c23.8,1.87,47,4.34,70.68,6.33c24.56,2.07,49.63,3.42,75.1,4.02
				c51.9,1.19,103.43-1.15,154.34-3.94c6.25-0.36,12.46-0.68,18.7-1.03C699.25,254.04,699.17,253.88,698.89,253.88L698.89,253.88z"
				/>
		</g>
		<g id="XMLID_78_">
			<path id="XMLID_80_" class="st2" d="M685.12,254.08c34.03-0.99,68.05-2.11,102.12-2.91c14.45-0.36,28.93-0.6,43.34-1.11
				c6.65-0.24,13.41-0.36,20.02-0.72c6.41-0.36,12.85-0.76,19.14-1.27c12.5-0.99,24.63-2.51,35.38-4.66
				c5.41-1.07,10.63-2.31,15.24-3.66c4.9-1.47,8.99-3.1,13.25-4.74c4.26-1.63,8.91-3.18,14.96-4.22c6.13-1.07,12.93-1.67,19.78-2.23
				c15.96-1.27,32.12-2.35,48.27-3.34c36.89-2.27,74.06-4.06,111.67-5.01c1.47-0.04,1.51-0.68,0-0.68
				c-33.59-0.2-67.02,0.4-100.37,1.63c-16.72,0.6-33.39,1.59-49.83,2.71c-15.12,0.96-31.12,1.95-43.38,4.93
				c-5.73,1.39-10.15,3.18-14.65,4.93c-3.94,1.51-8.16,2.95-12.97,4.26c-9.15,2.43-20.26,4.14-31.56,5.57
				c-24.32,3.02-50.46,4.3-76.37,5.53c-37.93,1.83-76.09,3.26-114.14,4.78C684.69,253.92,684.77,254.08,685.12,254.08L685.12,254.08
				z"/>
		</g>
		<g id="XMLID_76_">
			<path id="XMLID_77_" class="st2" d="M1126.24,202.06c-20.54-0.52-41.23-0.96-61.81-1.07c-20.58-0.12-41.19,0.04-61.73,0.44
				c-20.77,0.36-41.55,1.19-62.16,2.03c-20.42,0.84-40.75,1.79-61.01,2.95c-5.05,0.28-10.11,0.6-15.16,0.88
				c-4.22,0.24-8.64,0.44-12.66,0.92c-4.22,0.52-8.24,1.35-9.55,2.71c-1.43,1.47,0.88,2.79,3.82,3.94
				c10.23,3.98,25.79,6.57,42.27,7.68c9.07,0.6,18.35,0.76,27.66,0.76c5.29,0,10.75-0.2,15.96-0.44c5.09-0.24,10.23-0.44,15.16-0.84
				s10.15-0.6,15.16-0.88c5.09-0.32,10.15-0.6,15.24-0.88c10.23-0.52,20.46-0.99,30.72-1.43c41.39-1.71,83.58-2.19,125.32-2.11
				c5.21,0,10.43,0.04,15.64,0.08c0.4,0,0.4-0.16,0-0.16c-39.68-0.52-79.48-0.4-119.11,0.4c-19.98,0.4-39.88,0.8-59.82,1.31
				c-19.58,0.52-39.16,1.19-58.86,1.03c-15.28-0.12-31-1.23-43.74-3.86c-2.83-0.6-5.45-1.31-7.8-2.07
				c-0.99-0.32-1.95-0.64-2.79-0.99c-0.16-0.08-1.31-0.68-1.47-0.68c0.84,0-0.52,0.6-0.52,0.68c0-0.12,1.31-0.28,1.83-0.32
				c1.99-0.2,4.14-0.32,6.21-0.44c4.66-0.28,9.35-0.56,14.01-0.84c38.52-2.27,77.41-3.9,116.53-4.97
				c39.24-1.07,78.44-2.31,117.8-2.91c4.97-0.08,9.91-0.16,14.88-0.2C1127.28,202.5,1127.24,202.06,1126.24,202.06L1126.24,202.06z"
				/>
		</g>
		<g id="XMLID_73_">
			<path id="XMLID_75_" class="st2" d="M1103.16,236.13c-36.85-1.99-75.5-1.51-111.16,1.99c-18.15,1.79-35.3,4.18-51.66,7.08
				c-17.19,3.06-33.91,6.45-52.73,8.64c-18.23,2.11-37.53,3.3-56.87,4.14c-10.07,0.44-20.18,0.68-30.25,1.03
				c-10.27,0.36-20.34,0.96-30.49,1.51c-21.53,1.15-43.98,1.59-65.79,2.15c-21.53,0.56-43.06,1.07-64.59,1.59
				c-21.93,0.56-43.82,1.03-65.79,1.39c-21.73,0.32-43.34,0.84-64.79-0.48c-19.86-1.23-38.64-3.66-58.18-5.25
				c-17.91-1.43-36.14-2.43-54.56-3.1c-75.26-2.71-151.51,1.23-225.22,5.45c-75.14,4.3-152.07,8.68-228.92,8.32
				c-9.59-0.04-19.18-0.2-28.73-0.4c-0.92-0.04-0.88,0.4,0,0.44c76.05,2.79,151.99-0.48,226.97-4.22
				c74.9-3.74,151.59-7.64,227.84-6.33c18.55,0.32,37.01,0.96,55.24,1.99c19.1,1.11,37.17,3.02,55.88,4.5
				c9.67,0.76,19.42,1.43,29.37,1.79c10.67,0.4,21.69,0.24,32.4,0.04c21.57-0.4,42.94-1.39,64.47-1.91
				c43.02-0.99,86.08-2.27,129.18-2.98c10.94-0.2,21.93-0.48,32.87-0.56c10.63-0.08,21.17,0.16,31.8,0
				c19.46-0.36,39.12-1.11,58.14-2.31c19.06-1.19,37.53-3.06,54.72-5.77c17.63-2.79,33.91-6.21,51.62-8.91
				c34.15-5.25,71.87-8.24,110.16-9.31c9.63-0.28,19.3-0.32,28.97-0.28C1103.48,236.37,1103.56,236.17,1103.16,236.13
				L1103.16,236.13z"/>
		</g>
		<g id="XMLID_70_">
			<path id="XMLID_71_" class="st2" d="M31.48,100.26c33.15,0.4,68.69,0.76,98.58-4.18c24.71-4.1,43.5-10.86,61.73-17.07
				c9.31-3.18,19.02-6.33,29.85-9.11c12.5-3.18,26.86-5.37,42.62-6.89c17.11-1.63,35.06-2.35,52.85-2.98
				c19.22-0.68,38.52-1.19,57.83-1.63c38.8-0.92,78.2-0.8,117.05-0.12c18.55,0.32,37.57,0.8,55.08,2.75
				c14.37,1.59,25.91,4.34,38.05,7c22.92,5.09,44.33,11.1,70.56,14.73c32.55,4.5,70.28,4.3,105.46,4.34
				c38.48,0.08,77.01,0.12,115.49-0.32c19.34-0.24,38.72-0.56,57.99-1.15c18.59-0.6,38.05-1.03,56.15-2.43
				c8.87-0.68,17.31-1.47,25.75-2.51c1.99-0.24,0.92-1.15-1.07-1.15c-18.94,0.12-37.49,0.92-56.27,1.55
				c-19.18,0.64-38.48,1.07-57.79,1.43c-38.13,0.68-76.33,0.76-114.5,0.72c-19.34,0-38.72,0.04-58.07-0.2
				c-18.07-0.2-36.49-0.68-53.85-2.23c-27.82-2.51-49.91-8-72.67-13.05c-24.87-5.53-53.81-9.47-85.05-10.39
				c-18.98-0.56-38.25-0.64-57.27-0.68c-19.34-0.08-38.72,0-58.07,0.24c-37.21,0.44-74.58,0.96-111.35,2.79
				c-31.88,1.59-61.09,4.93-85.84,11.1c-21.81,5.45-38.96,12.26-60.25,17.87c-10.47,2.75-22.33,5.21-35.22,6.92
				c-16.28,2.15-33.91,3.1-51.62,3.58c-8.72,0.24-17.43,0.4-26.19,0.52C30.17,99.7,30.17,100.26,31.48,100.26L31.48,100.26z"/>
		</g>
		<g id="XMLID_68_">
			<path id="XMLID_69_" class="st2" d="M18.83,90.39c31.4,2.31,66.54-0.56,94.84-4.66c30.09-4.38,56.27-10.51,83.38-16.24
				c13.13-2.79,25.91-5.81,40.36-8c15.52-2.39,31.88-4.1,49.03-5.13c18.03-1.07,36.42-1.51,54.72-1.91
				c18.03-0.4,36.06-0.84,54.09-1.31c36.26-0.96,73.23-2.39,109.68-2.03c32.32,0.32,62.16,4.74,89.86,9.23
				c28.57,4.7,57.43,9.07,89.23,11.62c33.83,2.71,68.69,3.86,103.35,5.25c17.23,0.68,34.39,1.55,51.74,1.91
				c17.83,0.36,35.78,0.32,53.61,0.08c18.15-0.24,36.22-0.76,54.24-1.35c17.27-0.56,35.14-0.99,52.1-2.15
				c8.4-0.6,16.83-1.15,25.27-1.71c2.39-0.16,1.79-1.23-0.56-1.23c-17.71-0.04-35.02,0.08-52.61,0.6
				c-17.71,0.56-35.38,1.11-53.13,1.51c-35.34,0.8-70.84,1.07-106.02-0.52c-34.43-1.51-69.21-2.55-103.36-4.66
				c-32.95-2.03-63.8-5.41-94.4-9.47c-14.37-1.91-28.97-3.62-43.58-5.37c-14.65-1.71-29.85-3.26-45.37-4.18
				c-15.52-0.92-31.08-0.76-46.8-0.52c-18.51,0.24-37.01,0.72-55.44,1.23c-18.19,0.52-36.38,1.07-54.6,1.43
				c-18.07,0.36-36.22,0.44-54.24,0.92c-17.15,0.44-34.27,1.19-50.78,2.67c-15.48,1.39-30.29,3.42-44.57,5.65
				c-29.05,4.5-54.36,10.59-81.15,16.08c-27.74,5.69-59.3,10.94-93.64,11.82c-8.28,0.2-16.75,0.2-25.03,0
				C18.15,89.95,17.99,90.35,18.83,90.39L18.83,90.39z"/>
		</g>
		<g id="XMLID_64_">
			<path id="XMLID_66_" class="st2" d="M26.03,81.51c31.92,1.71,65.27-1.63,91.93-6.73c28.69-5.45,53.81-12.5,83.93-17.31
				c29.77-4.78,62.88-7.24,96.15-8.84c36.22-1.75,72.55-2.71,109.28-2.79c37.49-0.08,75.46,0.24,112.59,1.87
				c18.31,0.8,36.42,1.95,54.16,3.54c17.67,1.59,34.5,3.74,51.78,5.65c66.7,7.32,138.46,10.67,209.38,11.86
				c71.48,1.19,142.75-0.28,213.12-4.06c8.6-0.48,17.15-0.96,25.71-1.47c1.19-0.08,0.96-0.68-0.28-0.64
				c-70.64,2.03-142.28,3.1-213.24,2.55c-71.36-0.56-141.28-3.78-209.93-9.47c-34.9-2.91-69.37-6.53-105.15-8.48
				c-36.22-1.95-73.51-2.55-110.28-2.79c-36.85-0.24-74.02,0.12-110.8,0.8c-33.31,0.64-66.86,2.23-98.26,5.65
				c-31.76,3.46-58.46,9.19-84.81,15.28C114.82,72.32,85.77,78.81,51.9,80.8c-8.52,0.52-17.11,0.64-25.75,0.48
				C25.75,81.32,25.67,81.47,26.03,81.51L26.03,81.51z"/>
		</g>
		<g id="XMLID_62_">
			<path id="XMLID_63_" class="st2" d="M23.88,68.82c31.28,1.99,63.36-0.68,91.26-4.86c14.49-2.15,28.18-4.74,41.63-7.4
				c13.33-2.63,26.11-5.53,39.52-8.12c13.65-2.63,28.1-4.93,43.46-6.57c16.32-1.75,34.03-2.47,51.22-2.95
				c34.31-0.96,69.09-0.88,103.51-0.92c69.41-0.08,140.41,0.64,206.91,7.08c33.15,3.18,65.07,7.4,99.3,9.55
				c34.27,2.15,69.45,2.71,104.43,2.87c36.22,0.12,72.47,0.04,108.69-0.12c36.42-0.2,73.43,0,109.56-1.39
				c8.64-0.32,17.23-0.68,25.83-1.15c2.07-0.12,1.35-0.96-0.48-0.99c-18.15-0.52-36.53-0.92-54.76-0.84
				c-18.27,0.08-36.53,0.24-54.8,0.32c-36.18,0.16-72.39,0.24-108.57,0.24c-35.1,0-70.52-0.04-105.34-1.55
				c-34.62-1.51-67.34-4.97-100.69-7.96c-65.71-5.85-135.59-7.24-203.92-7.28c-34.66-0.04-69.37,0.24-104.03,0.56
				c-32.91,0.28-65.98,1.35-96.83,4.93c-29.65,3.46-56.31,8.52-82.82,13.65C110.4,61.06,80.99,66.11,49.19,67.7
				c-8.24,0.4-16.68,0.56-25.03,0.48C23.05,68.22,22.77,68.74,23.88,68.82L23.88,68.82z"/>
		</g>
		<g id="XMLID_60_">
			<path id="XMLID_61_" class="st2" d="M992.2,15.53c-35.06-0.64-70.12-1.19-105.27-1.27c-34.9-0.08-69.89,0.99-104.07,3.02
				c-16.87,1.03-33.59,2.31-49.91,3.94c-16.32,1.63-32.75,3.5-47.96,5.93c-6.89,1.07-13.77,2.71-15.52,5.09
				c-1.83,2.43,1.59,5.01,7.76,6.69c6.33,1.71,14.77,2.47,23.12,2.79c9.03,0.36,18.11,0.6,27.14,0.92
				c35.58,1.19,71.2,2.23,106.98,2.83c35.74,0.6,71.6,0.68,107.33-0.04c35.5-0.72,70.92-2.15,105.03-5.17
				c16.72-1.47,33.19-3.22,49.19-5.29c7-0.92,14.09-1.79,20.18-3.18c4.74-1.07,9.39-2.47,10.51-4.26
				c2.71-4.38-15.56-6.85-26.55-8.28c-14.41-1.91-29.85-2.98-45.37-3.74c-32.44-1.55-65.59-1.59-98.34-1.95
				c-7.84-0.08-16.36-0.12-24-0.64c-1.71-0.12-2.47,0.68-0.72,0.8c3.74,0.28,7.4,0.68,11.14,0.96c4.06,0.32,8.12,0.6,12.26,0.84
				c7.72,0.48,15.48,0.8,23.32,0.92c15.72,0.2,31.48,0.24,47.2,0.28c15.48,0.04,31.08,0.16,46.28,1.03
				c14.57,0.84,30.33,2.15,42.58,4.7c5.93,1.23,11.3,3.14,8.72,5.41c-2.19,1.91-8.44,3.06-14.29,3.9
				c-7.04,0.99-14.8,1.63-22.25,2.31c-8.04,0.72-16.12,1.39-24.24,1.99c-16.48,1.23-33.15,2.11-49.87,2.98
				c-16.48,0.88-33.07,1.55-49.71,2.03c-67.86,1.91-136.35,0.8-204.04-1.19c-16.95-0.48-33.87-1.03-50.78-1.67
				c-6.61-0.24-14.45-0.52-19.86-1.71c-2.23-0.52-4.18-1.23-5.01-1.95c-0.96-0.8-0.88-1.31,0.8-2.07
				c3.42-1.51,11.54-2.35,17.19-3.14c7.2-0.99,14.57-1.91,22.01-2.75c15.28-1.71,31-3.1,46.88-4.26c31.8-2.27,64.51-3.5,97.15-4.26
				c16.72-0.4,33.31-0.96,50.07-1.23c16.68-0.28,33.39-0.52,50.11-0.68c8.32-0.08,16.6-0.16,24.91-0.24
				C992.92,15.85,992.88,15.57,992.2,15.53L992.2,15.53z"/>
		</g>
		<g id="XMLID_57_">
			<path id="XMLID_58_" class="st2" d="M1031.01,20.86c-20.46-0.36-40.87-0.72-61.33-0.99c-20.62-0.24-41.31-0.56-61.93-0.44
				c-20.62,0.12-41.03,0.48-61.49,1.27c-20.06,0.8-40,1.91-59.58,3.46c-10.79,0.84-21.93,1.71-32.2,2.98
				c-9.15,1.15-17.51,3.38-15.56,6.53c0.56,0.92,3.7,1.39,6.49,1.43c28.34,0.68,56.79,1.27,85.25,1.31c7.04,0,14.09,0.16,21.17,0.2
				c7.04,0.04,14.13,0,21.17,0.12c14.13,0.28,28.14,0.28,42.31,0.2c28.54-0.16,57.11-1.15,85.13-2.75
				c13.73-0.76,27.86-1.51,41.23-2.71c10.19-0.92,23.68-3.54,20.66-7.2c-1.83-2.23-8.91-3.22-15.76-3.86
				c-7.76-0.72-15.96-1.39-24.2-1.23c-7.6,0.16-15.24-0.04-22.88,0.08c-7.8,0.12-15.56,0.28-23.28,0.64
				c-1.07,0.04-0.8,0.56,0.24,0.56c13.25-0.04,26.51,0.28,39.36,1.27c3.02,0.24,5.73,0.72,8.68,0.99c3.3,0.32,6.61,0.6,9.99,0.88
				c2.83,0.24,5.65,0.48,8.44,0.72c1.95,0.2,4.34,0.36,5.69,0.76c0.4,0.12,0.72,0.24,0.24,0.08c-0.08,0,0.99,0.36,0.08,0.04
				c0.08,0.04-0.12,0.44,0.04,0.04c-0.12,0.32-0.2,0.16,0.04,0.08c-1.03,0.48-1.79,0.8-3.34,1.11c-4.22,0.92-8.44,1.23-13.53,1.59
				c-12.97,0.96-25.99,1.83-39.12,2.59c-12.93,0.72-25.95,1.35-38.88,1.99c-12.89,0.64-25.83,1.07-38.8,1.55
				c-13.29,0.52-26.7,0.84-40.08,1.19c-13.09,0.36-26.43,0.2-39.56,0.04c-14.84-0.16-29.93-0.84-44.61-1.47
				c-14.8-0.64-29.37-1.59-43.86-2.71c1.63,0.64,3.3,1.27,4.93,1.91c0-0.36-0.2,0,0.04-0.32c0.08-0.12,0.2-0.28,0.36-0.4
				c-0.08,0.04-0.32,0.2,0.04,0c0.48-0.28,1.43-0.56,2.51-0.8c2.55-0.56,5.69-0.96,8.72-1.23c9.07-0.92,18.31-1.75,27.58-2.47
				c18.71-1.47,37.73-2.55,56.87-3.34c19.18-0.8,38.56-1.43,57.87-1.95c19.54-0.48,39.04-0.96,58.62-1.19
				c22.09-0.24,44.18-0.36,66.26-0.48C1031.36,21.02,1031.33,20.86,1031.01,20.86L1031.01,20.86z"/>
		</g>
		<g id="XMLID_54_">
			<path id="XMLID_56_" class="st2" d="M925.14,8.88c-69.13-3.1-137.62,1.23-203.65,7.04c-33.99,2.98-67.86,6.13-102.4,8.56
				c-36.26,2.55-72.87,4.02-110.16,4.26c-39.04,0.28-78-0.52-117.01-0.99c-19.02-0.24-38.05-0.52-57.07-0.28
				c-17.87,0.2-35.82,0.52-53.61,1.07c-35.18,1.07-70.36,2.95-103.39,6.77c-34.31,3.98-64.67,10.31-99.18,14.17
				c-34.94,3.94-72.03,6.13-108.97,7.76c-19.38,0.88-38.92,1.47-58.46,1.79c-19.54,0.32-38.84,0.04-58.34-0.2
				c-9.47-0.12-18.94-0.32-28.38-0.56c-1.27-0.04-1.47,0.52-0.28,0.64c36.65,3.1,75.97,2.75,113.58,1.55
				c37.13-1.19,74.54-3.22,110.36-6.33c17.19-1.47,34.07-3.3,50.26-5.53c16.83-2.35,32.83-5.17,49.43-7.68
				c32.95-4.93,68.21-7.96,104.87-9.39c35.58-1.39,71.24-0.72,106.9-0.32c39.32,0.4,78.6,1.27,117.96,1.47
				c38.17,0.16,76.21-0.44,113.82-2.47c34.82-1.91,68.93-4.82,102.8-7.8c33.83-2.98,67.62-6.05,101.76-8.68
				c33.75-2.59,68.29-4.62,103.28-4.86c8.64-0.04,17.23,0,25.83,0.16C925.5,9.12,925.58,8.88,925.14,8.88L925.14,8.88z"/>
		</g>
		<g id="XMLID_50_">
			<path id="XMLID_52_" class="st2" d="M960.29,0.84c-67.5-1.43-135.75-2.59-202.65,1.31C693.92,5.9,634.58,14.3,570.7,17.84
				c-67.38,3.74-136.9,2.51-205.12,2.94c-34.11,0.2-68.13,0.72-102,1.91c-33.23,1.19-65.67,3.22-97.78,5.97
				C103.6,34,37.89,40.68-27.62,36.5c-7.56-0.48-15.12-1.11-22.53-1.75c-0.76-0.08-1.23,0.28-0.52,0.36
				c27.26,4.1,59.66,4.86,89.78,4.18c32.83-0.76,64.79-3.22,96.39-5.81c32.55-2.67,65.19-5.01,98.66-6.57
				c34.15-1.55,68.65-2.27,103.16-2.71c68.25-0.88,137.02,0.4,205-1.91c65.87-2.23,126.76-9.99,189.88-15.4
				c32.55-2.79,65.35-4.82,99.22-5.61c34.39-0.8,69.01-0.68,103.47-0.48c8.48,0.04,16.91,0.12,25.35,0.16
				C960.56,0.96,960.56,0.84,960.29,0.84L960.29,0.84z"/>
		</g>
		<g id="XMLID_48_">
			<path id="XMLID_49_" class="st2" d="M-14.76,29.46c32.91,0.08,66.26-0.56,98.9-1.87c16.72-0.68,33.39-1.55,49.63-2.91
				c16.08-1.31,31.76-2.95,47.52-4.58c32.2-3.34,64.31-6.09,98.3-7.28c32.87-1.15,66.1-1.31,99.18-1.27
				c33.31,0.04,66.62,0.24,99.89-0.32s65.95-1.95,98.46-4.02c33.23-2.15,66.22-4.58,99.57-6.61c33.99-2.03,68.61-3.06,103.28-3.3
				c69.41-0.56,138.5,1.67,207.27,4.18c8.68,0.32,17.35,0.64,26.03,0.92c0.68,0.04,0.84-0.32,0.16-0.36
				c-68.21-3.3-137.1-6.17-206.27-6.65C773-4.85,738.73-4.37,704.86-3.02c-33.83,1.35-66.98,3.66-100.21,5.89
				c-33.03,2.23-66.14,4.38-99.93,5.37c-33.43,0.99-67.1,0.92-100.65,0.92c-66.02,0-132.49-0.24-196.16,5.69
				c-32.4,3.02-63.6,7-96.79,9.27c-33.07,2.27-66.7,3.42-100.49,4.3c-8.48,0.2-16.87,0.44-25.31,0.76
				C-15.36,29.22-15.4,29.46-14.76,29.46L-14.76,29.46z"/>
		</g>
	</g>
</g>
<rect x="5" y="5" class="st3" width="1014" height="54"/>
<rect class="st4" width="1024" height="65.4"/>
</svg>
